<?xml version="1.0" standalone="no"?>
<!DOCTYPE svg PUBLIC "-//W3C//DTD SVG 1.1//EN" "http://www.w3.org/Graphics/SVG/1.1/DTD/svg11.dtd" >
<svg xmlns="http://www.w3.org/2000/svg">
<metadata>
This is a custom SVG font generated by IcoMoon.
<iconset grid="32"></iconset>
</metadata>
<defs>
<font id="icomoon" horiz-adv-x="1024" >
<font-face units-per-em="1024" ascent="960" descent="-64" />
<missing-glyph horiz-adv-x="1024" />
<glyph class="hidden" unicode="&#xf000;" d="M0,960L 1024 -64L0 -64 z" horiz-adv-x="0" />
<glyph unicode="&#xf17b;" d="M 928-64q-40,0 -68,28t-28,68q0,150 -58.5,286t-157,234.5t-234.5,157t-286,58.5q-40,0 -68,28t-28,68t 28,68t 68,28q 126,0 246.5-33.5t 222-93t 187.5-145.5t 145.5-187.5t 93-222t 33.5-246.5q0-40 -28-68t-68-28zM 96,576q 111,0 211.5-43t 173.5-116t 116-173.5
t 43-211.5q0-40 -28-68t-68-28t-68,28t-28,68q0,151 -100.5,251.5t-251.5,100.5q-40,0 -68,28t-28,68t 28,68t 68,28zM 128,192q 53,0 90.5-37.5t 37.5-90.5t-37.5-90.5t-90.5-37.5t-90.5,37.5t-37.5,90.5t 37.5,90.5t 90.5,37.5z"  />
<glyph unicode="&#xe000;" d="M 558.545,29.091l-93.091,0 c-71.913,0-139.729,16.756-200.518,45.894L 46.545-64l 30.255,302.732
	C 28.346,312.134,0,400.012,0,494.545C0,751.616, 208.384,960, 465.455,960l 93.091,0 c 257.071,0, 465.455-208.384, 465.455-465.455C 1024,237.475, 815.616,29.091, 558.545,29.091z M 558.545,866.909l-93.091,0 
	c-205.638,0-372.364-166.726-372.364-372.364c0-205.638, 166.726-372.364, 372.364-372.364l 93.091,0 c 205.638,0, 372.364,166.726, 372.364,372.364C 930.909,700.183, 764.183,866.909, 558.545,866.909z M 698.182,448c-25.74,0-46.545,20.852-46.545,46.545s 20.806,46.545, 46.545,46.545
	s 46.545-20.852, 46.545-46.545S 723.921,448, 698.182,448z M 512,448c-25.693,0-46.545,20.852-46.545,46.545s 20.852,46.545, 46.545,46.545c 25.74,0, 46.545-20.852, 46.545-46.545S 537.74,448, 512,448z M 325.818,448
	c-25.693,0-46.545,20.852-46.545,46.545s 20.852,46.545, 46.545,46.545s 46.545-20.852, 46.545-46.545S 351.511,448, 325.818,448z"  />
<glyph unicode="&#xe001;" d="M 320,888.928c-64,0-128-64-128-128l0-745.632 c0-64, 38.528-76.864, 77.024-25.792l 237.984,315.712
	l 248.992-337.312C 793.984-83.552, 832-71.072, 832-7.072l0,768 c0,64-64,128-128,128L 320,888.928 z"  />
<glyph unicode="&#xe002;" d="M 256,96c0-16, 16.672-32, 33.376-32L 960,64 l0,64 L 289.376,128 C 272.672,128, 256,112, 256,96z M 64,832l0-768 
	c0-64, 64-128, 128-128l 768,0 l0,64 L 292.16,0 C 242.080,0, 192,48, 192,96s 50.080,96, 100.16,96L 960,192 L 960,960 L 192,960 C 128,960, 64,896, 64,832z"  />
<glyph unicode="&#xe003;" d="M 365.728,448c0,80.768, 65.472,146.272, 146.272,146.272c 80.8,0, 146.272-65.504, 146.272-146.272
	c0-80.8-65.472-146.272-146.272-146.272C 431.2,301.728, 365.728,367.2, 365.728,448z M 621.728,886.848C 621.728,923.424, 585.12,960, 548.576,960l-73.12,0 
	c-36.576,0-73.152-36.576-73.152-73.152l0-102.4 c0-36.576-25.856-47.296-51.712-21.408L 278.464,835.136c-25.856,25.888-77.6,25.888-103.424,0L 124.864,784.96
	c-25.856-25.856-25.856-77.568,0-103.424l 72.096-72.096c 25.856-25.856, 15.136-51.712-21.408-51.712l-102.4,0 C 36.576,557.728,0,521.152,0,484.576l0-73.12 
	c0-36.576, 36.576-73.152, 73.152-73.152l 102.4,0 c 36.576,0, 47.296-25.856, 21.408-51.712l-72.096-72.096c-25.856-25.888-25.856-77.6,0-103.456l 50.176-50.112
	c 25.856-25.888, 77.568-25.888, 103.424,0l 72.096,72.096c 25.856,25.856, 51.712,15.168, 51.712-21.408l0-102.432 c0-36.576, 36.576-73.12, 73.152-73.12l 73.12,0 
	c 36.576,0, 73.152,36.576, 73.152,73.12l0,102.432 c0,36.576, 25.856,47.264, 51.712,21.408l 72.096-72.096c 25.856-25.888, 77.6-25.888, 103.424,0l 50.144,50.112
	c 25.888,25.888, 25.888,77.6,0,103.456l-72.096,72.096c-25.856,25.888-15.168,51.712, 21.408,51.712l 102.432,0 c 36.576,0, 73.12,36.608, 73.12,73.152l0,73.12 
	c0,36.576-36.576,73.152-73.12,73.152l-102.432,0 c-36.576,0-47.264,25.856-21.408,51.712l 72.096,72.096c 25.888,25.856, 25.888,77.568,0,103.424
	L 848.96,835.136c-25.856,25.888-77.6,25.888-103.424,0l-72.096-72.096c-25.888-25.856-51.712-15.168-51.712,21.408L 621.728,886.848 z"  />
<glyph unicode="&#xe004;" d="M 128,832l 768,0 l0-512 L 128,320 L 128,832 z M 128,960C 64,960,0,896,0,832l0-512 c0-64, 64-128, 128-128l 320,0 l0-128 L 256,64 l0-128 l 512,0 l0,128 l-192,0 l0,128 l 320,0 
	c 64,0, 128,64, 128,128L 1024,832 c0,64-64,128-128,128L 128,960 z"  />
<glyph unicode="&#xe005;" d="M 427.904,893.344c 42.048,88.864, 126.112,88.864, 168.192,0l 104.352-220.64l 233.344-35.36
	c 94.016-14.272, 119.968-97.696, 51.968-166.88l-168.832-171.744l 39.84-242.496c 16.064-97.696-51.936-149.28-136.032-103.136L 512,67.552l-208.704-114.464
	c-84.096-46.144-152.096,5.44-136.032,103.136l 39.84,242.496l-168.832,171.744c-68.032,69.184-42.016,152.608, 51.968,166.88l 233.344,35.36L 427.904,893.344z"  />
<glyph unicode="&#xe006;" d="M 744.704,896C 647.584,896, 562.016,782.912, 512,708.416C 461.984,782.912, 376.416,896, 279.296,896C 125.024,896,0,772.224,0,619.552
		c0-87.968, 41.504-166.304, 106.176-216.928C 174.304,339.712, 486.72,50.048, 511.904,5.76l0-0.256 c0,0.032, 0.064,0.096, 0.096,0.128
		c0-0.032, 0.064-0.096, 0.096-0.128L 512.096,5.76 c 25.152,44.32, 337.6,333.984, 405.728,396.864C 982.496,453.248, 1024,531.616, 1024,619.552
		C 1024,772.224, 898.976,896, 744.704,896z"  />
<glyph unicode="&#xf009;" d="M 438.429,374.857l0-219.429 q0-29.714 -21.714-51.429t-51.429-21.714l-292.571,0 q-29.714,0 -51.429,21.714t-21.714,51.429l0,219.429 q0,29.714 21.714,51.429t 51.429,21.714l 292.571,0 q 29.714,0 51.429-21.714t 21.714-51.429zM 438.429,813.714l0-219.429 q0-29.714 -21.714-51.429t-51.429-21.714l-292.571,0 q-29.714,0 -51.429,21.714t-21.714,51.429l0,219.429 q0,29.714 21.714,51.429t 51.429,21.714l 292.571,0 q 29.714,0 51.429-21.714t 21.714-51.429zM 950.428,374.857l0-219.429 q0-29.714 -21.714-51.429t-51.429-21.714 l-292.571,0 q-29.714,0 -51.429,21.714t-21.714,51.429l0,219.429 q0,29.714 21.714,51.429t 51.429,21.714l 292.571,0 q 29.714,0 51.429-21.714t 21.714-51.429zM 950.428,813.714l0-219.429 q0-29.714 -21.714-51.429t-51.429-21.714l-292.571,0 q-29.714,0 -51.429,21.714t-21.714,51.429l0,219.429 q0,29.714 21.714,51.429t 51.429,21.714l 292.571,0 q 29.714,0 51.429-21.714t 21.714-51.429z" horiz-adv-x="950"  />
<glyph unicode="&#xf075;" d="M 1024,448q0-99.429 -68.571-183.714t-186.286-133.143t-257.143-48.857q-40,0 -82.857,4.571q-113.143-100 -262.857-138.286q-28-8 -65.143-12.571q-9.714-1.143 -17.429,5.143t-10,16.571l0,0.571 q-1.714,2.286 -0.286,6.857t 1.143,5.714t 2.571,5.429l 3.429,5.143t 4,4.857t 4.571,5.143q 4,4.571 17.714,19.714t 19.714,21.714t 17.714,22.571t 18.571,29.143t 15.429,33.714t 14.857,43.429q-89.714,50.857 -141.429,125.714t-51.714,160.571 q0,74.286 40.571,142t 109.143,116.857t 163.429,78t 198.857,28.857q 139.429,0 257.143-48.857t 186.286-133.143t 68.571-183.714z"  />
<glyph unicode="&#xf086;" d="M 804.571,521.143q0-79.429 -53.714-146.857t-146.571-106.571t-202-39.143q-49.143,0 -100.571,9.143q-70.857-50.286 -158.857-73.143q-20.571-5.143 -49.143-9.143l-1.714,0 q-6.286,0 -11.714,4.571t-6.571,12q-0.571,1.714 -0.571,3.714t 0.286,3.714t 1.143,3.429l 1.429,2.857t 2,3.143t 2.286,2.857t 2.571,2.857t 2.286,2.571q 2.857,3.429 13.143,14.286t 14.857,16.857t 12.857,16.571t 14.286,22t 11.714,25.143q-70.857,41.143 -111.429,101.143t-40.571,128 q0,79.429 53.714,146.857t 146.571,106.571t 202,39.143t 202-39.143t 146.571-106.571t 53.714-146.857zM 1024,374.857q0-68.571 -40.571-128.286t-111.429-100.857q 5.714-13.714 11.714-25.143t 14.286-22t 12.857-16.571t 14.857-16.857t 13.143-14.286q 0.571-0.571 2.286-2.571t 2.571-2.857t 2.286-2.857t 2-3.143l 1.429-2.857t 1.143-3.429t 0.286-3.714t-0.571-3.714q-1.714-8 -7.429-12.571t-12.571-4 q-28.571,4 -49.143,9.143q-88,22.857 -158.857,73.143q-51.429-9.143 -100.571-9.143q-154.857,0 -269.714,75.429q 33.143-2.286 50.286-2.286q 92,0 176.571,25.714t 150.857,73.714q 71.429,52.571 109.714,121.143t 38.286,145.143q0,44 -13.143,86.857q 73.714-40.571 116.571-101.714t 42.857-131.429z"  />
<glyph unicode="&#xf087;" d="M 145.929,192q0,14.857 -10.857,25.714t-25.714,10.857t-25.714-10.857t-10.857-25.714t 10.857-25.714t 25.714-10.857t 25.714,10.857t 10.857,25.714zM 804.214,521.143q0,29.143 -22.286,51.143t-50.857,22l-201.143,0 q0,33.143 27.429,91.143t 27.429,91.714q0,56 -18.286,82.857t-73.143,26.857q-14.857-14.857 -21.714-48.571t-17.429-71.714t-34-62.571q-12.571-13.143 -44-52q-2.286-2.857 -13.143-17.143t-18-23.429t-19.714-24.286 t-22.857-25.143t-22-20.286t-22.857-15.429t-20.286-5.143l-18.286,0 l0-365.714 l 18.286,0 q 7.429,0 18-1.714t 18.857-3.714t 21.714-6.286t 20-6.571t 20.286-7.143t 16.571-6q 120.571-41.714 195.429-41.714l 69.143,0 q 109.714,0 109.714,95.429q0,14.857 -2.857,32q 17.143,9.143 27.143,30t 10,42t-10.286,39.429q 30.286,28.571 30.286,68q0,14.286 -5.714,31.714t-14.286,27.143q 18.286,0.571 30.571,26.857t 12.286,46.286zM 877.357,521.714 q0-50.857 -28-93.143q 5.143-18.857 5.143-39.429q0-44 -21.714-82.286q 1.714-12 1.714-24.571q0-57.714 -34.286-101.714q 0.571-79.429 -48.571-125.429t-129.714-46l-20.571,0 l-53.143,0 q-54.857,0 -108.286,12.857t-123.714,37.429q-66.286,22.857 -78.857,22.857l-164.571,0 q-30.286,0 -51.714,21.429t-21.429,51.714l0,365.714 q0,30.286 21.429,51.714t 51.714,21.429l 156.571,0 q 20.571,13.714 78.286,88.571q 33.143,42.857 61.143,73.143 q 13.714,14.286 20.286,48.857t 17.429,72.286t 35.429,61.714q 22.286,21.143 51.429,21.143q 48,0 86.286-18.571t 58.286-58t 20-106.286q0-53.143 -27.429-109.714l 100.571,0 q 59.429,0 102.857-43.429t 43.429-102.286z" horiz-adv-x="877"  />
<glyph unicode="&#xf088;" d="M 145.929,704q0,14.857 -10.857,25.714t-25.714,10.857t-25.714-10.857t-10.857-25.714t 10.857-25.714t 25.714-10.857t 25.714,10.857t 10.857,25.714zM 804.214,374.857q0,20 -12.286,46.286t-30.571,26.857q 8.571,9.714 14.286,27.143t 5.714,31.714q0,39.429 -30.286,68q 10.286,18.286 10.286,39.429t-10,42t-27.143,30q 2.857,17.143 2.857,32q0,48.571 -28,72t-77.714,23.429l-73.143,0 q-74.857,0 -195.429-41.714q-2.857-1.143 -16.571-6 t-20.286-7.143t-20-6.571t-21.714-6.286t-18.857-3.714t-18-1.714l-18.286,0 l0-365.714 l 18.286,0 q 9.143,0 20.286-5.143t 22.857-15.429t 22-20.286t 22.857-25.143t 19.714-24.286t 18-23.429t 13.143-17.143q 31.429-38.857 44-52q 23.429-24.571 34-62.571t 17.429-71.714t 21.714-48.571q 54.857,0 73.143,26.857t 18.286,82.857q0,33.714 -27.429,91.714t-27.429,91.143l 201.143,0 q 28.571,0 50.857,22t 22.286,51.143z M 877.357,374.286q0-58.857 -43.429-102.286t-102.857-43.429l-100.571,0 q 27.429-56.571 27.429-109.714q0-67.429 -20-106.286q-20-39.429 -58.286-58t-86.286-18.571q-29.143,0 -51.429,21.143q-19.429,18.857 -30.857,46.857t-14.571,51.714t-10,48.286t-17.714,36.571q-27.429,28.571 -61.143,72.571q-57.714,74.857 -78.286,88.571l-156.571,0 q-30.286,0 -51.714,21.429t-21.429,51.714l0,365.714 q0,30.286 21.429,51.714t 51.714,21.429 l 164.571,0 q 12.571,0 78.857,22.857q 73.143,25.143 127.429,37.714t 114.286,12.571l 64,0 q 80,0 129.429-45.143t 48.857-123.429l0-2.857 q 34.286-44 34.286-101.714q0-12.571 -1.714-24.571q 21.714-38.286 21.714-82.286q0-20.571 -5.143-39.429q 28-42.286 28-93.143z" horiz-adv-x="877"  />
<glyph unicode="&#xf085;" d="M 511.933,448q0,60.563 -42.851,103.416t-103.416,42.851t-103.416-42.851t-42.851-103.416t 42.851-103.416t 103.416-42.851t 103.416,42.851t 42.851,103.416zM 950.733,155.467q0,29.71 -21.711,51.422t-51.422,21.711t-51.422-21.711t-21.711-51.422q0-30.282 21.426-51.707t 51.707-21.426t 51.707,21.426t 21.426,51.707zM 950.733,740.533q0,29.71 -21.711,51.422t-51.422,21.711t-51.422-21.711t-21.711-51.422q0-30.282 21.426-51.707t 51.707-21.426 t 51.707,21.426t 21.426,51.707zM 731.334,499.993l0-105.7 q0-5.713 -3.999-11.142t-9.142-5.999l-88.559-13.712q-6.285-19.997 -18.284-43.423q 19.426-27.425 51.422-65.705q 3.999-5.713 3.999-11.428q0-6.856 -3.999-10.856q-13.141-17.141 -47.137-51.136t-44.851-33.996q-6.285,0 -11.998,3.999l-65.705,51.422q-21.14-10.856 -43.994-17.712q-6.285-61.706 -13.141-88.559q-3.999-13.712 -17.141-13.712l-106.272,0 q-6.285,0 -11.428,4.285t-5.713,9.999 l-13.141,87.418q-19.426,5.713 -42.851,17.712l-67.42-50.85q-3.999-3.999 -11.428-3.999q-6.285,0 -11.998,4.57q-82.275,75.99 -82.275,91.417q0,5.142 3.999,10.856q 5.713,7.999 23.426,30.282t 26.853,34.852q-13.141,25.14 -19.997,46.851l-86.846,13.712q-5.713,0.571 -9.713,5.428t-3.999,11.142l0,105.7 q0,5.713 3.999,11.142t 9.142,5.999l 88.559,13.712q 6.285,19.997 18.284,43.423q-19.426,27.425 -51.422,65.705q-3.999,6.285 -3.999,11.428q0,6.856 3.999,11.428q 12.569,17.141 46.851,50.85t 45.137,33.71q 6.285,0 11.998-3.999 l 65.705-51.422q 19.426,10.285 43.994,18.284q 6.285,61.706 13.141,87.989q 3.999,13.712 17.141,13.712l 106.272,0 q 6.285,0 11.428-4.285t 5.713-9.999l 13.141-87.418q 19.426-5.713 42.851-17.712l 67.42,50.85q 4.57,3.999 11.428,3.999q 6.285,0 11.998-4.57q 82.275-75.99 82.275-91.417q0-5.142 -3.999-10.856q-6.856-9.142 -23.997-30.853t-25.711-34.282q 13.141-27.425 19.426-46.851l 86.846-13.141q 5.713-1.143 9.713-5.999t 3.999-11.142zM 1097,195.462l0-79.99 q0-9.142 -85.132-17.712 q-6.856-15.427 -17.141-29.71q 29.139-64.563 29.139-78.847q0-2.286 -2.286-3.999q-69.705-40.566 -70.848-40.566q-4.57,0 -26.283,26.853t-29.71,38.852q-11.428-1.143 -17.141-1.143t-17.141,1.143q-7.999-11.998 -29.71-38.852t-26.283-26.853q-1.143,0 -70.848,40.566q-2.286,1.714 -2.286,3.999q0,14.284 29.139,78.847q-10.285,14.284 -17.141,29.71q-85.132,8.57 -85.132,17.712l0,79.99 q0,9.142 85.132,17.712q 7.428,16.569 17.141,29.71q-29.139,64.563 -29.139,78.847q0,2.286 2.286,3.999q 2.286,1.143 19.997,11.428 t 33.71,19.426t 17.141,9.142q 4.57,0 26.283-26.568t 29.71-38.566q 11.428,1.143 17.141,1.143t 17.141-1.143q 29.139,40.566 52.564,63.992l 3.429,1.143q 2.286,0 70.848-39.995q 2.286-1.714 2.286-3.999q0-14.284 -29.139-78.847q 9.713-13.141 17.141-29.71q 85.132-8.57 85.132-17.712zM 1097,780.527l0-79.99 q0-9.142 -85.132-17.712q-6.856-15.427 -17.141-29.71q 29.139-64.563 29.139-78.847q0-2.286 -2.286-3.999q-69.705-40.566 -70.848-40.566q-4.57,0 -26.283,26.853t-29.71,38.852 q-11.428-1.143 -17.141-1.143t-17.141,1.143q-7.999-11.998 -29.71-38.852t-26.283-26.853q-1.143,0 -70.848,40.566q-2.286,1.714 -2.286,3.999q0,14.284 29.139,78.847q-10.285,14.284 -17.141,29.71q-85.132,8.57 -85.132,17.712l0,79.99 q0,9.142 85.132,17.712q 7.428,16.569 17.141,29.71q-29.139,64.563 -29.139,78.847q0,2.286 2.286,3.999q 2.286,1.143 19.997,11.428t 33.71,19.426t 17.141,9.142q 4.57,0 26.283-26.568t 29.71-38.566q 11.428,1.143 17.141,1.143t 17.141-1.143q 29.139,40.566 52.564,63.992l 3.429,1.143q 2.286,0 70.848-39.995 q 2.286-1.714 2.286-3.999q0-14.284 -29.139-78.847q 9.713-13.141 17.141-29.71q 85.132-8.57 85.132-17.712z" horiz-adv-x="1097"  />
<glyph unicode="&#xf044;" d="M 507.429,283.429l 66.286,66.286l-86.857,86.857l-66.286-66.286l0-32 l 54.857,0 l0-54.857 l 32,0 zM 758.857,694.857q-9.143,9.143 -18.857-0.571l-200-200q-9.714-9.714 -0.571-18.857t 18.857,0.571l 200,200q 9.714,9.714 0.571,18.857zM 804.571,355.429l0-108.571 q0-68 -48.286-116.286t-116.286-48.286l-475.429,0 q-68,0 -116.286,48.286t-48.286,116.286l0,475.429 q0,68 48.286,116.286t 116.286,48.286l 475.429,0  q 36,0 66.857-14.286q 8.571-4 10.286-13.143q 1.714-9.714 -5.143-16.571l-28-28q-8-8 -18.286-4.571q-13.143,3.429 -25.714,3.429l-475.429,0 q-37.714,0 -64.571-26.857t-26.857-64.571l0-475.429 q0-37.714 26.857-64.571t 64.571-26.857l 475.429,0 q 37.714,0 64.571,26.857t 26.857,64.571l0,72 q0,7.429 5.143,12.571l 36.571,36.571q 8.571,8.571 20,4t 11.429-16.571zM 749.714,777.143l 164.571-164.571l-384-384l-164.571,0 l0,164.571 zM 1003.429,701.714l-52.571-52.571 l-164.571,164.571l 52.571,52.571q 16,16 38.857,16t 38.857-16l 86.857-86.857q 16-16 16-38.857t-16-38.857z"  />
<glyph unicode="&#xf108;" d="M 1023.867,393.15l0,475.367 q0,7.428 -5.428,12.855t-12.855,5.428l-914.167,0 q-7.428,0 -12.855-5.428t-5.428-12.855l0-475.367 q0-7.428 5.428-12.855t 12.855-5.428l 914.167,0 q 7.428,0 12.855,5.428t 5.428,12.855zM 1097,868.516l0-621.633 q0-37.709 -26.853-64.563t-64.563-26.853l-310.816,0 q0-21.14 9.142-44.28t 18.284-40.566t 9.142-24.854q0-14.855 -10.856-25.711t-25.711-10.856l-292.533,0 q-14.855,0 -25.711,10.856 t-10.856,25.711q0,7.999 9.142,25.14t 18.284,39.995t 9.142,44.565l-310.816,0 q-37.709,0 -64.563,26.853t-26.853,64.563l0,621.633 q0,37.709 26.853,64.563t 64.563,26.853l 914.167,0 q 37.709,0 64.563-26.853t 26.853-64.563z" horiz-adv-x="1097"  />
<glyph unicode="&#xe007;" d="M 640,960L 256,512l 192-128l-192-448l 512,512L 512,640L 640,960z"  />
<glyph unicode="&#xe00d;" d="M 734.994,154.626c-18.952,2.988-19.384,54.654-19.384,54.654s 55.688,54.656, 67.824,128.152
	c 32.652,0, 52.814,78.138, 20.164,105.628c 1.362,28.94, 41.968,227.176-163.598,227.176c-205.564,0-164.958-198.236-163.598-227.176
	c-32.654-27.49-12.488-105.628, 20.162-105.628c 12.134-73.496, 67.826-128.152, 67.826-128.152s-0.432-51.666-19.384-54.654
	C 483.958,144.994, 256,45.31, 256-64l 384,0 l 384,0 C 1024,45.31, 796.042,144.994, 734.994,154.626zM 344.054,137.19c 44.094,27.15, 97.626,52.308, 141.538,67.424c-15.752,22.432-33.294,52.936-44.33,89.062
	c-15.406,12.566-27.944,30.532-35.998,52.602c-8.066,22.104-11.122,46.852-8.608,69.684c 1.804,16.392, 6.478,31.666, 13.65,45.088
	c-4.35,46.586-7.414,138.034, 52.448,204.732c 23.214,25.866, 52.556,44.46, 87.7,55.686C 544.18,786.228, 511.294,862.238, 384,862.238
	c-205.564,0-164.958-198.236-163.598-227.176c-32.654-27.49-12.488-105.628, 20.162-105.628c 12.134-73.496, 67.826-128.152, 67.826-128.152
	s-0.432-51.666-19.384-54.654C 227.958,336.994,0,237.31,0,128l 329.596,0 C 334.306,131.074, 339.102,134.14, 344.054,137.19z"  />
<glyph unicode="&#xe008;" d="M 1002.934,142.124l-460.552,394.76C 563.83,577.182, 576,623.166, 576,672C 576,831.058, 447.058,960, 288,960
	c-29.094,0-57.172-4.332-83.646-12.354l 166.39-166.39c 24.89-24.89, 24.89-65.62,0-90.51l-101.49-101.49
	c-24.89-24.89-65.62-24.89-90.51,0L 12.354,755.646C 4.332,729.172,0,701.094,0,672c0-159.058, 128.942-288, 288-288
	c 48.834,0, 94.818,12.17, 135.116,33.62l 394.76-460.552c 22.908-26.724, 62.016-28.226, 86.904-3.338l 101.492,101.492
	C 1031.16,80.11, 1029.658,119.216, 1002.934,142.124z"  />
<glyph unicode="&#xe009;" d="M 1024,384l-128,256l-192,0 L 704,768 c0,35.2-28.8,64-64,64L 64,832 C 28.8,832,0,803.2,0,768l0-512 l 64-64l 81.166,0 C 134.268,173.168, 128,151.322, 128,128
	c0-70.692, 57.308-128, 128-128s 128,57.308, 128,128c0,23.322-6.268,45.168-17.166,64l 354.334,0 c-10.898-18.832-17.168-40.678-17.168-64
	c0-70.692, 57.308-128, 128-128s 128,57.308, 128,128c0,23.322-6.27,45.168-17.168,64L 1024,192 L 1024,384 z M 704,384l0,160 l 132.668,0 l 80-160L 704,384 z"  />
<glyph unicode="&#xe00a;" d="M 192,960L 192-64L 512,256L 832-64L 832,960 z"  />
<glyph unicode="&#xe00b;" d="M 256,832L 256-64L 576,256L 896-64L 896,832 	zM 768,960L 128,960L 128,64L 192,128L 192,896L 768,896 	z"  />
<glyph unicode="&#xe00c;" d="M 976,192l-16,0 L 960,400 c0,61.756-50.242,112-112,112L 576,512 l0,128 l 16,0 c 26.4,0, 48,21.6, 48,48L 640,848 c0,26.4-21.6,48-48,48l-160,0 
	c-26.4,0-48-21.6-48-48l0-160 c0-26.4, 21.6-48, 48-48l 16,0 l0-128 L 176,512 c-61.756,0-112-50.244-112-112l0-208 l-16,0 c-26.4,0-48-21.6-48-48l0-160 
	c0-26.4, 21.6-48, 48-48l 160,0 c 26.4,0, 48,21.6, 48,48l0,160 c0,26.4-21.6,48-48,48l-16,0 l0,192 l 256,0 l0-192 l-16,0 c-26.4,0-48-21.6-48-48l0-160 
	c0-26.4, 21.6-48, 48-48l 160,0 c 26.4,0, 48,21.6, 48,48l0,160 c0,26.4-21.6,48-48,48l-16,0 l0,192 l 256,0 l0-192 l-16,0 c-26.4,0-48-21.6-48-48l0-160 
	c0-26.4, 21.6-48, 48-48l 160,0 c 26.4,0, 48,21.6, 48,48l0,160 C 1024,170.4, 1002.4,192, 976,192z M 192,0L 64,0 l0,128 l 128,0 L 192,0 z M 576,0l-128,0 l0,128 l 128,0 L 576,0 z
	 M 448,704L 448,832 l 128,0 l0-128 L 448,704 z M 960,0l-128,0 l0,128 l 128,0 L 960,0 z"  />
<glyph unicode="&#xe00e;" d="M 799.424,649.024c 11.936-11.936, 31.296-11.936, 43.2,0l 169.056,133.088
	c 28.128-88.448, 8.256-188.864-61.92-259.040c-66.944-66.976-161.472-88.064-246.848-65.536l-200.512-200.512c 22.528-85.408, 1.408-179.904-65.504-246.848
	c-70.176-70.176-170.624-90.048-259.072-61.92l 133.152,169.024c 11.936,11.968, 11.936,31.296,0,43.232l-86.4,86.368c-11.936,11.936-31.296,11.936-43.2,0
	l-169.056-133.088c-28.128,88.448-8.256,188.832, 61.888,259.008c 66.976,66.976, 161.472,88.096, 246.88,65.536l 200.544,200.544
	c-22.56,85.376-1.44,179.904, 65.472,246.848c 70.176,70.176, 170.624,90.048, 259.104,61.952l-133.152-169.088c-11.904-11.904-11.904-31.264,0-43.168
	L 799.424,649.024z"  />
<glyph unicode="&#xe00f;" d="M 960,960L 64,960 C 28.672,960,0,931.328,0,896l0-640 c0-35.328, 28.672-64, 64-64l 256,0 l-128-256l 32,0 l 230.4,256l 115.2,0 l 230.4-256l 32,0 
		l-128,256l 256,0 c 35.328,0, 64,28.672, 64,64L 1024,896 C 1024,931.328, 995.328,960, 960,960z M 960,288c0-17.696-14.304-32-32-32L 96,256 c-17.696,0-32,14.304-32,32L 64,864 c0,17.696, 14.304,32, 32,32
		l 832,0 c 17.696,0, 32-14.304, 32-32L 960,288 z M 668.096,459.808L 523.424,831.936l-158.016-297.28l-88.192,90.72L 128,532.384l 42.112-24.256l 20.256,12.608l 75.36,46.976
		l 115.36-118.784l 133.6,251.296l 147.712-380.128l 125.984,265.216l 51.328-109.248L 896,485.504l-107.328,228.224L 668.096,459.808z"  />
<glyph unicode="&#xe010;" d="M 512.448,253.376c-1.184,0-2.368,0-3.552,0c-281.024,0-508.32,68.256-508.384,120.672
	l-0.512,205.856c0,0.32, 0.128,0.608, 0.128,0.864c 46.272-21.952, 100.64-32.064, 133.152-38.112c 101.024-18.784, 234.464-29.152, 375.616-29.152l 3.552,0 
	c 142.048,0.16, 276.256,10.784, 378.016,29.888c 32.544,6.112, 86.72,16.288, 133.024,38.112c0-0.096,0-0.288,0-0.288l 0.544-205.856
	C 1024.096,322.72, 795.136,253.76, 512.448,253.376z M 512.448,575.488c-1.184,0-2.368,0-3.552,0c-281.024,0-508.32,62.272-508.384,114.688
	l-0.512,173.888C-0.096,916.672, 228.992,959.648, 511.68,960c 1.248,0, 2.432,0, 3.68,0c 280.928,0, 508.064-42.24, 508.128-94.656l 0.544-173.888
	C 1024.096,638.848, 795.136,575.872, 512.448,575.488z M 508.864,191.36l 3.552,0 c 142.048,0.192, 276.288,16.768, 378.016,35.872
	c 32.544,6.112, 86.72,16.288, 133.056,38.144l 0.512-233.472c 0.064-52.64-228.896-95.584-511.584-95.936c-1.216,0-2.368,0-3.616,0
	c-280.96,0-508.256,42.24-508.32,94.624L0,264.672c 46.272-21.984, 100.672-32.096, 133.248-38.144C 234.272,207.712, 367.68,191.36, 508.864,191.36z"  />
<glyph unicode="&#xe011;" d="M 1024,384.992l0,128 l-152.992,63.744c-4.256,12-8.736,23.616-14.24,35.008l 61.76,153.76L 828,856
		l-152.384-62.752c-11.616,5.632-23.488,10.368-35.744,14.752L 575.008,960l-128,0 l-63.264-151.488c-12.736-4.512-24.992-9.248-37.12-15.008l-152.128,61.12
		L 104,764.128l 62.016-150.752C 160,600.992, 155.136,588.384, 150.496,575.36L0,511.008l0-128 l 150.624-62.752c 4.64-12.992, 9.632-25.632, 15.616-38.016
		l-60.864-151.744l 90.496-90.496l 151.136,62.24c 12.128-5.76, 24.512-10.368, 37.248-14.752L 448.992-64l 128,0 l 63.36,152.256
		c 12.128,4.512, 24.128,9.248, 35.616,14.752l 153.504-61.504l 90.496,90.496l-63.008,152.736c 5.376,11.488, 9.76,23.136, 14.016,35.008L 1024,384.992z
		 M 511.008,256c-105.984,0-192,86.016-192,192s 86.016,192, 192,192s 192-86.016, 192-192S 616.992,256, 511.008,256z"  />
<glyph unicode="&#xe012;" d="M 1011.424,779.424l-160.736-160.736l-168,0 L 682.688,789.312 l 158.752,158.688C 817.952,955.072, 793.696,960, 767.936,960
		C 626.624,960, 512,845.312, 512,704c0-39.424, 9.632-76.32, 25.632-109.76L 24.992,81.76C 9.632,66.24,0,44.992,0,21.248C0-25.76, 38.112-64, 85.376-64
		c 23.616,0, 44.992,9.504, 60.256,24.992l 512.736,512.576C 691.68,457.696, 728.672,448, 767.936,448c 141.504,0, 256,114.688, 256,256
		C 1023.936,730.432, 1018.944,755.424, 1011.424,779.424z" horiz-adv-x="1022"  />
<glyph unicode="&#xe013;" d="M 439.712,339.264l-320.256,320c-159.264-184.128-159.264-455.904,0-640L 439.712,339.264zM 640.032,826.944l0-468.672 L 308.768,26.88C 383.264-28.736, 473.76-64, 573.76-64C 822.496-64, 1024,137.248, 1024,385.888
			C 1024.032,611.744, 856.576,794.752, 640.032,826.944zM 512,447.488L 512,960 C 372.512,951.36, 246.496,897.984, 144.736,814.816L 512,447.488z" horiz-adv-x="1022"  />
<glyph unicode="&#xe014;" d="M 512,960C 229.76,960,0,730.304,0,448l 128,0 c0,26.432, 21.632,48, 48,48C 202.496,496, 224,474.432, 224,448l 128,0 
		c0,26.432, 21.632,48, 48,48c 26.496,0, 48-21.568, 48-48l0-320 c0-35.264-28.64-64-64-64c-35.264,0-64,28.736-64,64L 192,128 c0-105.888, 86.24-192, 192-192
		c 105.984,0, 192,86.112, 192,192L 576,448 c0,26.432, 21.632,48, 48,48c 26.496,0, 47.936-21.568, 47.936-48l 128,0 c0,26.432, 21.76,48, 48,48
		c 26.496,0, 48-21.568, 48-48l 128,0 C 1023.936,730.304, 794.432,960, 512,960z" horiz-adv-x="1022"  />
<glyph unicode="&#xe015;" d="M 708.384,332L 1024,576L 640,576L 512,960L 384,576L0,576L 316,332.992L 192-64L 512.512,181.76L 832.256-64 		
			z"  />
<glyph unicode="&#xe016;" d="M 928-64L 224-64 c-17.664,0-32,14.304-32,32l0,32 L 96,0 c-17.696,0-32,14.304-32,32l0,64 c0,17.696, 14.304,32, 32,32
	l 96,0 l0,64 L 96,192 c-17.696,0-32,14.304-32,32l0,64 c0,17.696, 14.304,32, 32,32l 96,0 l0,64 L 96,384 c-17.696,0-32,14.304-32,32l0,64 c0,17.696, 14.304,32, 32,32l 96,0 l0,64 L 96,576 
	c-17.696,0-32,14.304-32,32L 64,672 c0,17.696, 14.304,32, 32,32l 96,0 L 192,768 L 96,768 C 78.304,768, 64,782.304, 64,800L 64,864 c0,17.696, 14.304,32, 32,32l 96,0 L 192,928 c0,17.696, 14.336,32, 32,32l 704,0 
	c 17.696,0, 32-14.304, 32-32l0-960 C 960-49.696, 945.696-64, 928-64z M 192,864L 128,864 C 110.304,864, 96,849.696, 96,832s 14.304-32, 32-32l 64,0 c 17.696,0, 32,14.304, 32,32S 209.696,864, 192,864z
	 M 192,672L 128,672 c-17.696,0-32-14.304-32-32s 14.304-32, 32-32l 64,0 c 17.696,0, 32,14.304, 32,32S 209.696,672, 192,672z M 192,480L 128,480 c-17.696,0-32-14.304-32-32s 14.304-32, 32-32l 64,0 
	c 17.696,0, 32,14.304, 32,32S 209.696,480, 192,480z M 192,288L 128,288 c-17.696,0-32-14.304-32-32s 14.304-32, 32-32l 64,0 c 17.696,0, 32,14.304, 32,32S 209.696,288, 192,288z M 192,96L 128,96 
	c-17.696,0-32-14.304-32-32s 14.304-32, 32-32l 64,0 c 17.696,0, 32,14.304, 32,32S 209.696,96, 192,96z M 768,292c0,54.56-67.776,74.144-157.184,82.336
	c 3.712,2.272, 7.104,6.016, 10.464,9.664L 608,384 c 17.696,0, 32,14.304, 32,32l0,192 c0,17.696-14.304,32-32,32l-64,0 c-17.696,0-32-14.304-32-32l0-192 
	c0-17.696, 14.304-32, 32-32l-13.28,0 c 3.36-3.648, 6.784-7.36, 10.464-9.664C 451.776,366.144, 384,345.824, 384,292L 384,256 l 384,0 L 768,292 z"  />
<glyph unicode="&#xe017;" d="M 385.536,417.248c-5.696-8.224-12.64-28.832-20.864-33.888c-8.224-5.024-17.504-8.544-27.808-10.496
	c-10.336-1.984-21.024-2.848-32.064-2.528l0-48.864 l 78.944,0 L 383.744,128 l 63.712,0 l0,319.872 l-50.688,0 C 394.976,435.68, 391.232,425.472, 385.536,417.248z M 736,704l 64,0 
	c 17.696,0, 32,14.336, 32,32L 832,928 c0,17.664-14.304,32-32,32l-64,0 c-17.696,0-32-14.336-32-32l0-192 C 704,718.336, 718.304,704, 736,704z M 224,704l 64,0 c 17.664,0, 32,14.336, 32,32L 320,928 
	c0,17.664-14.336,32-32,32L 224,960 C 206.336,960, 192,945.664, 192,928l0-192 C 192,718.336, 206.336,704, 224,704z M 960,832l-64,0 l0-160 c0-17.664-14.304-32-32-32l-192,0 c-17.696,0-32,14.336-32,32L 640,832 l-256,0 l0-160 
	c0-17.664-14.336-32-32-32L 160,640 c-17.664,0-32,14.336-32,32L 128,832 L 64,832 C 28.672,832,0,803.328,0,768l0-768 c0-35.328, 28.672-64, 64-64l 896,0 c 35.328,0, 64,28.672, 64,64L 1024,768 
	C 1024,803.328, 995.328,832, 960,832z M 960,32c0-17.696-14.304-32-32-32L 96,0 c-17.664,0-32,14.304-32,32L 64,544 c0,17.664, 14.336,32, 32,32l 832,0 c 17.696,0, 32-14.336, 32-32L 960,32 z
	 M 511.52,384.576l 158.976,0 c-29.952-36.864-54.048-74.4-72.48-118.56c-18.4-44.192-20.416-90.176-23.968-137.984l 68.192,0 
	c 0.288,21.312-6.24,44.32-1.632,68.992c 4.672,24.672, 11.264,49.024, 19.744,73.12c 8.544,24.064, 19.136,46.752, 31.872,68.064
	c 12.672,21.344, 27.296,39.328, 43.744,53.952l0,55.744 l-224.48,0 L 511.488,384.576 z"  />
<glyph unicode="&#xe018;" d="M 384,448 L 64,448 L 64,576 L 384,576 L 384,704 L 576,512 L 384,320 ZM 1024,960 L 1024,128 L 640-64 L 640,128 L 256,128 L 256,384 L 320,384 L 320,192 L 640,192 L 640,768 L 896,896 L 320,896 L 320,640 L 256,640 L 256,960 Z"  />
<glyph unicode="&#xe019;" d="M 768,320 L 768,448 L 448,448 L 448,576 L 768,576 L 768,704 L 960,512 ZM 704,384 L 704,128 L 384,128 L 384-64 L 0,128 L 0,960 L 704,960 L 704,640 L 640,640 L 640,896 L 128,896 L 384,768 L 384,192 L 640,192 L 640,384 Z"  />
<glyph unicode="&#xe01a;" d="M 128,64 L 1024,64 L 1024-64 L 0-64 L 0,960 L 128,960 ZM 288,128 C 234.98,128 192,170.98 192,224 C 192,277.020 234.98,320 288,320 C 290.828,320 293.622,319.852 296.388,319.614 L 399.58,491.6 C 389.74,506.67 384,524.662 384,544.002 C 384,597.022 426.98,640.002 480,640.002 C 533.020,640.002 576,597.022 576,544.002 C 576,524.66 570.26,506.67 560.42,491.6 L 663.612,319.614 C 666.378,319.852 669.172,320 672,320 C 674.136,320 676.248,319.906 678.35,319.77 L 848.706,617.892 C 838.17,633.3 832,651.928 832,672.002 C 832,725.022 874.98,768.002 928,768.002 C 981.020,768.002 1024,725.022 1024,672.002 C 1024,618.982 981.020,576.002 928,576.002 C 925.86,576.002 923.752,576.096 921.65,576.234 L 751.294,278.11 C 761.83,262.704 768,244.074 768,224 C 768,170.98 725.020,128 672,128 C 618.98,128 576,170.98 576,224 C 576,243.34 581.74,261.332 591.578,276.402 L 488.388,448.386 C 485.622,448.148 482.828,448 480,448 C 477.172,448 474.378,448.146 471.612,448.386 L 368.42,276.4 C 378.26,261.332 384,243.34 384,224 C 384,170.98 341.020,128 288,128 Z"  />
<glyph unicode="&#xe01b;" d="M0,128L 1024,128L 1024,0L0,0zM 128,384L 256,384L 256,192L 128,192zM 320,640L 448,640L 448,192L 320,192zM 512,448L 640,448L 640,192L 512,192zM 704,832L 832,832L 832,192L 704,192z"  />
<glyph unicode="&#xe01c;" d="M 512,832C 264.576,832, 64,631.424, 64,384s 200.576-448, 448-448s 448,200.576, 448,448S 759.424,832, 512,832z M 512,24
	c-198.824,0-360,161.178-360,360c0,198.824, 161.176,360, 360,360c 198.822,0, 360-161.176, 360-360C 872,185.178, 710.822,24, 512,24z
	 M 934.784,672.826C 950.826,700.878, 960,733.368, 960,768c0,106.040-85.96,192-192,192c-61.818,0-116.802-29.222-151.92-74.596
	C 747.964,858.168, 861.286,780.206, 934.784,672.826z M 407.92,885.404C 372.804,930.778, 317.818,960, 256,960C 149.96,960, 64,874.040, 64,768
	c0-34.632, 9.174-67.122, 25.216-95.174C 162.716,780.206, 276.038,858.168, 407.92,885.404z M 448,640l 64,0 l0-320 l-64,0 L 448,640 z M 512,384l 192,0 l0-64 l-192,0 
	L 512,384 z"  />
<glyph unicode="&#xf0ce;" d="M 292.143,173.714l0,109.714 q0,8 -5.143,13.143t-13.143,5.143l-182.857,0 q-8,0 -13.143-5.143t-5.143-13.143l0-109.714 q0-8 5.143-13.143t 13.143-5.143l 182.857,0 q 8,0 13.143,5.143t 5.143,13.143zM 292.143,393.143l0,109.714 q0,8 -5.143,13.143t-13.143,5.143l-182.857,0 q-8,0 -13.143-5.143t-5.143-13.143l0-109.714 q0-8 5.143-13.143t 13.143-5.143l 182.857,0 q 8,0 13.143,5.143t 5.143,13.143zM 584.715,173.714l0,109.714 q0,8 -5.143,13.143t-13.143,5.143l-182.857,0 q-8,0 -13.143-5.143t-5.143-13.143 l0-109.714 q0-8 5.143-13.143t 13.143-5.143l 182.857,0 q 8,0 13.143,5.143t 5.143,13.143zM 292.143,612.571l0,109.714 q0,8 -5.143,13.143t-13.143,5.143l-182.857,0 q-8,0 -13.143-5.143t-5.143-13.143l0-109.714 q0-8 5.143-13.143t 13.143-5.143l 182.857,0 q 8,0 13.143,5.143t 5.143,13.143zM 584.715,393.143l0,109.714 q0,8 -5.143,13.143t-13.143,5.143l-182.857,0 q-8,0 -13.143-5.143t-5.143-13.143l0-109.714 q0-8 5.143-13.143t 13.143-5.143l 182.857,0 q 8,0 13.143,5.143t 5.143,13.143zM 877.286,173.714l0,109.714  q0,8 -5.143,13.143t-13.143,5.143l-182.857,0 q-8,0 -13.143-5.143t-5.143-13.143l0-109.714 q0-8 5.143-13.143t 13.143-5.143l 182.857,0 q 8,0 13.143,5.143t 5.143,13.143zM 584.715,612.571l0,109.714 q0,8 -5.143,13.143t-13.143,5.143l-182.857,0 q-8,0 -13.143-5.143t-5.143-13.143l0-109.714 q0-8 5.143-13.143t 13.143-5.143l 182.857,0 q 8,0 13.143,5.143t 5.143,13.143zM 877.286,393.143l0,109.714 q0,8 -5.143,13.143t-13.143,5.143l-182.857,0 q-8,0 -13.143-5.143t-5.143-13.143l0-109.714  q0-8 5.143-13.143t 13.143-5.143l 182.857,0 q 8,0 13.143,5.143t 5.143,13.143zM 877.286,612.571l0,109.714 q0,8 -5.143,13.143t-13.143,5.143l-182.857,0 q-8,0 -13.143-5.143t-5.143-13.143l0-109.714 q0-8 5.143-13.143t 13.143-5.143l 182.857,0 q 8,0 13.143,5.143t 5.143,13.143zM 950.428,795.429l0-621.714 q0-37.714 -26.857-64.571t-64.571-26.857l-768,0 q-37.714,0 -64.571,26.857t-26.857,64.571l0,621.714 q0,37.714 26.857,64.571t 64.571,26.857l 768,0 q 37.714,0 64.571-26.857t 26.857-64.571 z" horiz-adv-x="950"  />
<glyph unicode="&#xe01d;" d="M 930.909,122.182l-321.257,0 C 607.046,108.079, 605.091,92.905, 605.091,75.636c0-93.091, 93.091-93.091, 93.091-93.091c 25.74,0, 46.545-10.473, 46.545-23.273
	c0-12.847-20.806-23.273-46.545-23.273L 325.818-64 c-25.693,0-46.545,10.426-46.545,23.273C 279.273-27.927, 300.125-17.455, 325.818-17.455c0,0, 93.091,0, 93.091,93.091c0,17.268-1.955,32.442-4.561,46.545L 93.091,122.182 
	c-51.386,0-93.091,41.705-93.091,93.091L0,866.909 c0,51.386, 41.705,93.091, 93.091,93.091l 837.818,0 c 51.386,0, 93.091-41.705, 93.091-93.091l0-651.636 C 1024,163.887, 982.295,122.182, 930.909,122.182z M 930.909,866.909L 93.091,866.909 l0-558.545 l 837.818,0 L 930.909,866.909 z"  />
<glyph unicode="&#xe01e;" d="M 930.909,401.455L 372.364,401.455 c-25.74,0-46.545,20.806-46.545,46.545s 20.806,46.545, 46.545,46.545l 558.545,0 c 25.74,0, 46.545-20.806, 46.545-46.545
	S 956.649,401.455, 930.909,401.455z M 930.909,727.273L 372.364,727.273 C 346.624,727.273, 325.818,748.079, 325.818,773.818s 20.806,46.545, 46.545,46.545l 558.545,0 c 25.74,0, 46.545-20.806, 46.545-46.545S 956.649,727.273, 930.909,727.273z M 139.636,29.091c-51.386,0-93.091,41.705-93.091,93.091
	s 41.705,93.091, 93.091,93.091s 93.091-41.705, 93.091-93.091S 191.023,29.091, 139.636,29.091z M 139.636,354.909c-51.386,0-93.091,41.705-93.091,93.091s 41.705,93.091, 93.091,93.091s 93.091-41.705, 93.091-93.091S 191.023,354.909, 139.636,354.909z M 139.636,680.727
	C 88.25,680.727, 46.545,722.432, 46.545,773.818s 41.705,93.091, 93.091,93.091s 93.091-41.705, 93.091-93.091S 191.023,680.727, 139.636,680.727z M 372.364,168.727l 558.545,0 c 25.74,0, 46.545-20.806, 46.545-46.545s-20.806-46.545-46.545-46.545L 372.364,75.636 c-25.74,0-46.545,20.806-46.545,46.545
	S 346.624,168.727, 372.364,168.727z"  />
<glyph unicode="&#xe021;" d="M 1152.064,223.68l 1.824,546.848L 160.288,769.92L 160.256,832.64L 1216,832.64 l0-608.992 L 1152.064,223.68z
	 M 1119.84,127.456l-63.904,0.064l 1.824,546.848l-993.6-0.64l-0.032,62.72l 1055.744,0 L 1119.872,127.456 z M 1025.696,63.36L0,63.36 L0,640.32 l 1025.696,0 L 1025.696,63.36 z
	 M 961.568,578.208L 64.096,578.208 l0-450.752l 897.44,0 L 961.536,578.208 z M 865.44,175.52c0-5.664, 1.408-10.944, 3.232-16L 512.832,159.52 c 88.512,0, 160.288,86.080, 160.288,192.32
	s-71.776,192.32-160.288,192.32l 355.808,0 c-1.824-5.056-3.232-10.336-3.232-16.032c0-26.56, 21.504-48.064, 48.064-48.064
	c 5.696,0, 10.976,1.408, 16.032,3.232l0-262.88 c-5.056,1.792-10.336,3.232-16.032,3.232C 886.944,223.616, 865.44,202.080, 865.44,175.52z
	 M 801.312,418.592c-26.56,0-48.064-28.672-48.064-64.096s 21.504-64.096, 48.064-64.096s 48.064,28.672, 48.064,64.096S 827.872,418.592, 801.312,418.592z
	 M 579.936,467.392c 0.48-0.928, 0.864-2.176, 1.184-3.712c 0.352-1.536, 0.576-3.488, 0.672-5.824c 0.16-2.336, 0.224-5.248, 0.224-8.736
	c0-3.872-0.096-7.168-0.288-9.824c-0.224-2.688-0.576-4.896-0.992-6.624c-0.512-1.76-1.152-3.040-1.984-3.808
	c-0.864-0.8-2.048-1.216-3.52-1.216s-3.776,0.928-7.008,2.784c-3.232,1.888-7.168,3.872-11.808,6.048s-10.080,4.192-16.224,5.984
	s-12.864,2.688-20.224,2.688c-5.76,0-10.752-0.672-15.008-2.080c-4.288-1.408-7.872-3.328-10.72-5.792c-2.88-2.464-5.024-5.44-6.4-8.864
	c-1.408-3.456-2.112-7.136-2.112-10.976c0-5.76, 1.568-10.72, 4.704-14.944c 3.136-4.192, 7.328-7.936, 12.64-11.2
	c 5.28-3.296, 11.264-6.336, 17.92-9.216s 13.472-5.92, 20.416-9.088c 6.944-3.232, 13.76-6.848, 20.448-10.944
	c 6.688-4.064, 12.64-8.928, 17.824-14.592c 5.216-5.696, 9.44-12.352, 12.64-20.032s 4.8-16.704, 4.8-27.136c0-13.6-2.56-25.568-7.616-35.808
	c-5.056-10.272-11.936-18.88-20.64-25.76s-18.816-12.032-30.432-15.488c-1.472-0.448-3.072-0.64-4.576-0.992l0-35.008 l-31.52,0 l0,30.88 
	c-0.416,0-0.768-0.096-1.184-0.096c-8.928,0-17.248,0.736-24.928,2.176c-7.68,1.472-14.464,3.232-20.32,5.248
	c-5.888,2.048-10.784,4.224-14.72,6.464c-3.968,2.24-6.784,4.224-8.512,5.952s-2.976,4.224-3.712,7.488s-1.12,8-1.12,14.144
	c0,4.128, 0.128,7.616, 0.416,10.4c 0.256,2.816, 0.704,5.088, 1.312,6.848c 0.608,1.728, 1.408,2.976, 2.4,3.712
	c 0.992,0.704, 2.176,1.088, 3.488,1.088c 1.888,0, 4.512-1.088, 7.936-3.328c 3.392-2.176, 7.776-4.64, 13.12-7.296s 11.712-5.088, 19.136-7.296
	c 7.392-2.208, 16-3.328, 25.728-3.328c 6.4,0, 12.16,0.768, 17.216,2.304c 5.088,1.536, 9.376,3.712, 12.928,6.496
	c 3.52,2.816, 6.208,6.304, 8.096,10.432c 1.888,4.16, 2.816,8.768, 2.816,13.856c0,5.888-1.632,10.944-4.8,15.136
	c-3.2,4.224-7.36,7.936-12.512,11.232c-5.152,3.264-10.976,6.336-17.504,9.184c-6.56,2.88-13.28,5.92-20.224,9.12
	c-6.944,3.2-13.696,6.848-20.224,10.912c-6.528,4.064-12.384,8.928-17.504,14.624c-5.12,5.664-9.312,12.384-12.512,20.096
	c-3.2,7.744-4.8,17.024-4.8,27.84c0,12.416, 2.304,23.328, 6.912,32.704c 4.608,9.408, 10.816,17.216, 18.624,23.424
	c 7.808,6.176, 17.024,10.848, 27.616,13.92c 5.44,1.568, 11.072,2.72, 16.864,3.488l0,33.12 l 31.52,0 l0-33.12 c 1.248-0.16, 2.496-0.096, 3.744-0.288
	c 6.144-0.928, 11.904-2.176, 17.248-3.776c 5.312-1.6, 10.048-3.36, 14.176-5.376c 4.16-1.984, 6.88-3.616, 8.256-4.96
	C 578.56,469.472, 579.456,468.352, 579.936,467.392z M 352.576,351.84c0-106.208, 71.744-192.32, 160.256-192.32L 157.024,159.52 c 1.792,5.056, 3.232,10.336, 3.232,16
	c0,26.56-21.536,48.096-48.064,48.096c-5.696,0-10.976-1.44-16.032-3.232l0,262.88 c 5.056-1.824, 10.336-3.232, 16.032-3.232
	c 26.56,0, 48.064,21.504, 48.064,48.064c0,5.696-1.44,10.976-3.232,16.032l 355.808,0 C 424.32,544.16, 352.576,458.048, 352.576,351.84z M 224.352,418.592
	c-26.56,0-48.064-28.672-48.064-64.096s 21.536-64.096, 48.064-64.096c 26.56,0, 48.064,28.672, 48.064,64.096S 250.912,418.592, 224.352,418.592z" horiz-adv-x="1216"  />
<glyph unicode="&#xe022;" d="M 912,224L 520.128,224 c 11.488,19.808, 20.288,41.28, 26.112,64L 912,288 c 17.696,0, 32-14.304, 32-32
	C 944,238.336, 929.696,224, 912,224z M 912,320L 552.448,320 c 1.312,10.496, 2.208,21.152, 2.208,32c0,10.88-0.896,21.504-2.208,32L 912,384 
	c 17.696,0, 32-14.304, 32-32C 944,334.336, 929.696,320, 912,320z M 912,416L 546.24,416 c-5.856,22.72-14.624,44.192-26.112,64L 912,480 c 17.696,0, 32-14.304, 32-32
	C 944,430.336, 929.696,416, 912,416z M 912,512L 498.304,512 c-20.8,25.952-46.496,47.776-75.808,64L 912,576 c 17.696,0, 32-14.304, 32-32
	C 944,526.336, 929.696,512, 912,512z M 912,608l-512,0 c-17.696,0-32,14.336-32,32c0,17.696, 14.304,32, 32,32l 512,0 c 17.696,0, 32-14.304, 32-32
	C 944,622.336, 929.696,608, 912,608z M 912,704l-512,0 c-17.696,0-32,14.336-32,32c0,17.696, 14.304,32, 32,32l 512,0 c 17.696,0, 32-14.304, 32-32
	C 944,718.336, 929.696,704, 912,704z M 528,352c0-123.712-100.32-224-224-224c-123.712,0-224,100.288-224,224s 100.288,224, 224,224C 427.68,576, 528,475.712, 528,352z
	 M 383.296,327.648c-3.232,7.648-7.392,14.304-12.608,19.968c-5.216,5.664-11.136,10.528-17.792,14.592c-6.656,4.064-13.44,7.68-20.384,10.912
	c-6.944,3.2-13.728,6.208-20.384,9.088c-6.656,2.848-12.64,5.92-17.888,9.184c-5.28,3.264-9.472,7.008-12.608,11.2
	c-3.136,4.192-4.704,9.152-4.704,14.912c0,3.84, 0.704,7.488, 2.080,10.944c 1.408,3.424, 3.52,6.4, 6.4,8.864
	c 2.848,2.432, 6.432,4.384, 10.688,5.76c 4.256,1.408, 9.28,2.080, 15.008,2.080c 7.328,0, 14.048-0.864, 20.192-2.656
	c 6.112-1.824, 11.52-3.776, 16.192-5.984c 4.672-2.176, 8.608-4.192, 11.808-6.048c 3.2-1.856, 5.536-2.752, 7.008-2.752
	s 2.624,0.384, 3.488,1.184c 0.832,0.8, 1.536,2.048, 1.984,3.808c 0.48,1.728, 0.768,3.936, 0.992,6.592
	c 0.192,2.688, 0.288,5.984, 0.288,9.856c0,3.456-0.064,6.368-0.192,8.672c-0.128,2.336-0.384,4.288-0.672,5.824
	c-0.352,1.536-0.736,2.784-1.184,3.712c-0.512,0.928-1.376,2.048-2.72,3.36c-1.344,1.344-4.064,3.008-8.192,4.96
	c-4.128,1.984-8.864,3.776-14.176,5.344c-5.344,1.6-11.072,2.848-17.184,3.776c-1.248,0.192-2.528,0.128-3.776,0.288l0,33.088 L 293.472,518.176 
	l0-33.088 l0,0c-5.792-0.768-11.392-1.92-16.832-3.488c-10.592-3.072-19.776-7.68-27.584-13.888s-14.016-14.016-18.592-23.36
	c-4.608-9.408-6.88-20.288-6.88-32.672c0-10.784, 1.6-20.064, 4.768-27.776c 3.2-7.712, 7.36-14.432, 12.512-20.096
	c 5.152-5.664, 10.944-10.496, 17.472-14.56c 6.528-4.096, 13.28-7.712, 20.192-10.912c 6.944-3.2, 13.664-6.208, 20.192-9.088
	s 12.352-5.952, 17.472-9.184c 5.152-3.296, 9.312-7.008, 12.512-11.2c 3.2-4.224, 4.8-9.248, 4.8-15.104c0-5.088-0.928-9.696-2.784-13.856
	c-1.888-4.128-4.576-7.584-8.096-10.4c-3.52-2.816-7.808-4.96-12.864-6.496c-5.088-1.536-10.784-2.304-17.216-2.304
	c-9.728,0-18.304,1.088-25.696,3.296c-7.392,2.208-13.76,4.64-19.104,7.328c-5.344,2.656-9.696,5.056-13.088,7.296
	c-3.392,2.176-6.016,3.296-7.904,3.296c-1.344,0-2.528-0.384-3.488-1.088c-1.024-0.736-1.824-1.984-2.4-3.712
	c-0.608-1.76-1.024-4-1.312-6.816s-0.416-6.272-0.416-10.4c0-6.144, 0.384-10.848, 1.088-14.112
	c 0.736-3.296, 1.984-5.792, 3.712-7.488c 1.728-1.728, 4.544-3.68, 8.48-5.952s 8.832-4.384, 14.688-6.432
	c 5.856-2.016, 12.64-3.776, 20.288-5.248c 7.648-1.44, 15.968-2.144, 24.896-2.144c 0.384,0, 0.736,0.064, 1.152,0.064l0-30.816 l 31.456,0 l0,34.944 
	c 1.504,0.384, 3.104,0.576, 4.576,0.992c 11.584,3.456, 21.728,8.64, 30.4,15.488c 8.672,6.848, 15.52,15.392, 20.608,25.664
	c 5.056,10.272, 7.552,22.176, 7.552,35.776C 388.064,310.976, 386.464,319.968, 383.296,327.648z M 498.304,192L 912,192 c 17.696,0, 32-14.304, 32-32
	c0-17.664-14.304-32-32-32L 422.496,128 C 451.808,144.224, 477.504,166.048, 498.304,192z"  />
<glyph unicode="&#xe023;" d="M 896,672l-62.656,0 L 833.344,766.016 L 704,768l 0.672-96L 316,672 l 2.656,96L 192,766.016l0-96 L 128,672
			c-35.328,0-64-28.672-64-64l0-448 c0-35.328, 28.672-64, 64-64l 768,0 c 35.328,0, 64,28.672, 64,64L 960,608 C 960,643.328, 931.328,672, 896,672z M 736,736l 64,0 l0-128 l-64,0 L 736,736 z M 320,518.016
			c 38.656,0, 70.016-41.184, 70.016-92S 358.656,334.016, 320,334.016s-70.016,41.184-70.016,92S 281.344,518.016, 320,518.016z M 224,736l 64,0 l0-128 L 224,608 L 224,736 z
			 M 181.344,225.664c0,0, 7.584,60.864, 24.832,72.352c 17.216,11.488, 66.88,19.136, 66.88,19.136s 32.192-34.4, 45.888-34.4
			c 13.664,0, 45.856,34.4, 45.856,34.4s 49.664-7.616, 66.912-19.136c 20.256-13.504, 25.312-72.352, 25.312-72.352L 181.344,225.664 z M 832,256l-288,0 l0,32 l 288,0 L 832,256 z M 832,320
			l-288,0 l0,32 l 288,0 L 832,320 z M 832,384l-288,0 l0,32 l 288,0 L 832,384 z M 832,448l-288,0 l0,32 l 288,0 L 832,448 z"  />
<glyph unicode="&#xe024;" d="M 770.048,749.344l-120.736-268l-35.136,0 l 128.768,285.312l-198.816,0 l0-664.672 
	c 40.96-1.504, 250.016-69.344, 250.016-69.344L 794.144,0 L 232.224,0 l0,34.848 c0,0, 213.696,67.168, 245.888,67.168L 478.112,766.656 L 285.632,766.656 l 128.8-285.312l-35.136,0 L 258.56,749.344
	l-120.736-268L 102.688,481.344 l 129.536,286.912L 232.224,801.344 l 2.176,0 l 213.952,0 c0,43.296, 29.024,78.656, 62.88,78.656c 35.808,0, 62.88-37.376, 62.88-78.656l 220.096,0 l0-28.384 
	l 131.712-291.616l-35.136,0 L 770.048,749.344z M 416.64,448.672c0-86.176-59.776-169.024-158.048-169.024c-96.064,0-158.048,82.848-158.048,169.024
	C 100.512,448.544, 416.64,448.544, 416.64,448.672z M 616.384,448.672c0-0.16, 316.128-0.16, 316.128,0c0-86.176-59.776-169.024-158.048-169.024
	C 678.368,279.648, 616.384,362.496, 616.384,448.672z"  />
<glyph unicode="&#xe025;" d="M 191.936,800L 160.352,800 l0-736 l 640,0 l0,30.816 L 192.48,96.384L 191.936,800z M 256.352,160l 160,0 L 416.352,508 l-160-160L 256.352,160 z
			 M 448.352,160l 160,0 l0,316 l-64-64l-96,96L 448.352,160 z M 640.352,160l 160,0 L 800.352,645.984 l-160-160L 640.352,160 z M 428.384,605.856l 115.84-115.2l 228.736,227.584l 58.688-59.008L 830.24,800
			L 688.96,799.264l 54.944-55.104l-199.744-200.32l-118.048,118.496l-179.936-179.328l 30.048-29.184L 428.384,605.856z"  />
<glyph unicode="&#xe026;" d="M 223.584,800L 192,800 l0-736 l 640,0 l0,30.816 l-607.872,1.6L 223.584,800z M 448,518.016l-160,160L 288,160 l 160,0 L 448,518.016 z
			 M 480,540L 480,160 l 160,0 L 640,572 l-64,64L 480,540z M 672,448l0-288 l 160,0 l0,288 L 672,448 z M 579.808,724.128l 167.744-168.288l-46.944-44.48l 131.296-1.408l-0.608,126.752
			l-56.672-55.008l-194.752,197.6l-119.84-121.184L 321.888,796.16L 293.824,767.008l 163.936-165.376L 579.808,724.128z"  />
<glyph unicode="&#xe027;" d="M 96,32L 96,832 l 800,0 l0-512 l0-32 l0-256 L 96,32 z M 832,768L 160,768 l0-192 l 64.544,0 c 4.768,35.84, 23.872,62.688, 46.784,62.688
	c 22.944,0, 42.048-26.848, 46.784-62.688l 34.272,0 c 4.608,36.192, 23.84,63.328, 46.912,63.328s 42.304-27.168, 46.912-63.328l 226.144,0 
	c 4.608,36.192, 23.84,63.328, 46.912,63.328c 23.104,0, 42.304-27.168, 46.944-63.328L 832,576 L 832,768 z M 832,544l-65.6,0 c-4.288-36.832-23.712-64.672-47.104-64.672
	c-23.328,0-42.752,27.808-47.072,64.672L 446.4,544 c-4.288-36.832-23.712-64.672-47.072-64.672S 356.544,507.168, 352.256,544L 318.432,544 
	c-4.128-37.152-23.616-65.312-47.104-65.312S 228.352,506.848, 224.224,544L 160,544 l0-224 l 255.744,0 c 4.608,36.192, 23.872,63.328, 46.912,63.328
	c 23.072,0, 42.336-27.168, 46.944-63.328l 31.968,0 c 4.128,37.152, 23.616,65.344, 47.136,65.344c 23.456,0, 42.944-28.192, 47.104-65.344l 35.84,0 
	c 4.448,36.544, 23.808,64, 47.040,64s 42.592-27.456, 47.040-64L 832,320 L 832,544 z M 832,288l-66.304,0 c-4.448-36.512-23.808-64-47.040-64s-42.592,27.488-47.040,64l-36.16,0 
	c-4.768-35.808-23.872-62.656-46.784-62.656c-22.944,0-42.048,26.848-46.816,62.656l-32.128,0 c-4.288-36.832-23.712-64.672-47.072-64.672
	c-23.328,0-42.752,27.808-47.072,64.672L 160,288 l0-192 l 672,0 L 832,288 z"  />
<glyph unicode="&#xe028;" d="M 889.056,706.048c 30.688-74.016, 16.064-162.368-44.128-222.56
	c-66.272-66.272-166.432-76.64-244.288-32.704l-56.288-61.472l 40.16-40.32l 24,24c 12.256,12.288, 32.16,12.288, 44.416,0l 194.624-196.608
	c 12.288-12.256, 12.288-32.16,0-44.416l-88.832-88.832c-12.256-12.288-32.16-12.288-44.416,0l-194.624,196.608c-12.288,12.256-12.288,32.16,0,44.416
	l 21.92,21.92l-38.272,38.368l-269.152-294.048c-24.544-24.544-64.32-24.544-88.832,0l-22.208,22.208c-24.544,24.544-24.544,64.32,0,88.832l 306.624,256.8
	l-203.648,204.192l-64.32,0.032L 87.36,742.144l 59.904,60l 122.4-74.912l 0.8-62.976l 206.016-206.816l 59.936,50.176
	c-58.592,79.872-52.48,192.384, 19.712,264.576c 59.904,59.904, 147.776,74.784, 221.6,44.672L 645.76,686.72l 111.072-111.072L 889.056,706.048z M 196.8,130.112
	c-12.256,12.256-32.128,12.256-44.416,0c-12.288-12.288-12.288-32.16,0-44.448c 12.288-12.256, 32.16-12.256, 44.416,0
	C 209.088,97.984, 209.088,117.856, 196.8,130.112z"  />
<glyph unicode="&#xe029;" d="M 864,479.008L 224,479.008 l0-160 l 640,0 c 17.664,0, 32,14.304, 32,32l0,96 C 896,464.672, 881.664,479.008, 864,479.008z
			 M 704,159.008l0,96 c0,17.696-14.336,32-32,32L 224,287.008 l0-160 l 448,0 C 689.664,127.008, 704,141.312, 704,159.008z M 512,543.008l0,96 c0,17.664-14.336,32-32,32L 224,671.008 l0-160 l 256,0 
			C 497.664,511.008, 512,525.344, 512,543.008z M 320,735.008l0,96 c0,17.696-14.336,32-32,32L 224,863.008 l0-160 l 64,0 C 305.664,703.008, 320,717.344, 320,735.008z M 160,863.008L 128,863.008 l0-830.016 
			l 768,0 l0,32 L 160,64.992 L 160,863.008 z"  />
<glyph unicode="&#xe02a;" d="M 864,32L 128,32 c-35.36,0-64,28.672-64,64L 64,480 c0,0, 167.072-85.92, 320-121.088L 384,320 
	c0-17.696, 14.304-32, 32-32l 160,0 c 17.664,0, 32,14.304, 32,32l0,38.912 C 760.896,394.080, 928,480, 928,480l0-384 C 928,60.672, 899.328,32, 864,32z M 544,416
	c 17.664,0, 32-14.304, 32-32l0-32 c0-17.696-14.336-32-32-32l-96,0 c-17.696,0-32,14.304-32,32l0,32 c0,17.696, 14.304,32, 32,32L 544,416 z M 608,416c0,17.696-14.336,32-32,32l-160,0 
	c-17.696,0-32-14.304-32-32l0-28.672 C 231.072,423.552, 64,512, 64,512l0,128 c0,35.328, 28.64,64, 64,64l 192,0 L 320,768 c0,35.328, 28.672,64, 64,64l 224,0 c 35.328,0, 64-28.672, 64-64l0-64 l 192,0 
	c 35.328,0, 64-28.672, 64-64l0-128 c0,0-167.104-88.448-320-124.672L 608,416 z M 608,736c0,17.696-14.336,32-32,32l-160,0 c-17.696,0-32-14.304-32-32c0-17.664,0-32,0-32l 224,0 
	C 608,704, 608,718.336, 608,736z"  />
<glyph unicode="&#xe02b;" d="M 896,32L 128,32 c-35.328,0-64,28.672-64,64l0,288 l 128,0 l0-96 l 128,0 l0,96 l 384,0 l0-96 l 128,0 l0,96 l 128,0 l0-288 
	C 960,60.672, 931.328,32, 896,32z M 736,320l0,128 l 64,0 l0-128 L 736,320 z M 224,320l0,128 l 64,0 l0-128 L 224,320 z M 832,480l-128,0 l0-64 L 320,416 l0,64 L 192,480 l0-64 L 64,416 l0,224 c0,35.328, 28.672,64, 64,64l 768,0 
	c 35.328,0, 64-28.672, 64-64l0-224 l-128,0 L 832,480 z M 608,800.672l-192,0 L 416,736 l-64,0 L 352,767.328 l 32,0 L 384,864 l 256.672,0 l0-96 L 672,768 l0-32 l-64,0 L 608,800.672 z"  />
<glyph unicode="&#xf250;" d="M 990,576l-70,69l-284-285q-5-14 -14-23q-20-20 -49-16q-26-1 -44,17q-9,8 -13,21l-37,37q-2-3 -54.5-60.5t-57.5-62.5q-20-20 -50-16q-26-1 -44,17q-9,8 -13,21l-5,5l-122-122q-1-1 -2.5-2t-2.5-2l0-110 l 832,0 q 26,0 45-19t 19-45.5t-19-45t-45-18.5l-896,0 
q-27,0 -45.5,18.5t-18.5,45.5l0,896 q0,26 18.5,45t 45,19t 45.5-19t 19-45l0-555 l 68,68q 4,12 13,21q 18,18 44,17q 29,3 49-16q 9-9 14-24l 3-3l 101,101q 4,12 13,21q 18,18 44,17q 30,3 49-16q 9-9 14-24l 35-35l 261,261l-68,68q-1,36 22,35l 202,0 q 14-1 22.5-9.5t 9.5-22.5l0-202 
q 1-24 -34-22z"  />
<glyph unicode="&#xf276;" d="M 960.5-64q-26.5,0 -45.5,18.5t-19,45.5l0,895 q0,27 19,45.5t 45.5,18.5t 45-18.5t 18.5-45.5l0-895 q0-27 -18.5-45.5t-45-18.5zM 800-64q-13,0 -22.5,9.5t-9.5,22.5l0,959 q0,14 9.5,23t 22.5,9t 22.5-9t 9.5-23l0-959 q0-13 -9.5-22.5t-22.5-9.5zM 640.5-64q-26.5,0 -45.5,18.5
t-19,45.5l0,895 q0,27 18.5,45.5t 45.5,18.5t 45.5-18.5t 18.5-45.5l0-895 q0-27 -18.5-45.5t-45-18.5zM 416-64q-13,0 -22.5,9.5t-9.5,22.5l0,959 q0,14 9.5,23t 22.5,9t 22.5-9t 9.5-23l0-959 q0-13 -9.5-22.5t-22.5-9.5zM 256.5-64q-26.5,0 -45.5,18.5t-19,45.5l0,895 q0,27 19,45.5
t 45,18.5t 45-18.5t 19-45.5l0-895 q0-27 -18.5-45.5t-45-18.5zM 64.5-64q-26.5,0 -45.5,18.5t-19,45.5l0,895 q0,27 18.5,45.5t 45.5,18.5t 45.5-18.5t 18.5-45.5l0-895 q0-27 -18.5-45.5t-45-18.5z"  />
<glyph unicode="&#xf27b;" d="M 960,0l-896,0 q-26,0 -45,9.5t-19,22.5l0,128 l0,128 l0,64 l0,64 l0,64 l0,64 q0,1 3,10l 114,253q 3,10 20,17.5t 37,7.5l 682,0 q 21,0 37.5-7.5t 20.5-17.5l 108-253q 2-6 2-10l0-64 l0-64 l0-64 l0-64 l0-128 l0-128 q0-13 -19-22.5t-45-9.5zM 320,768l-15,0 q-13-24 -45.5-44t-67.5-20l-57,0 l-26-64l 83,0 
q 51,0 64.5-8.5t 8.5-38.5l-3-17l 58,0 l0,192 zM 320,512l-256,0 l0-48 q0-7 9.5-11.5t 22.5-4.5l 224,0 l0,64 zM 320,384l-256,0 l0-48 q0-7 9.5-11.5t 22.5-4.5l 224,0 l0,64 zM 320,256l-256,0 l0-48 q0-7 9.5-11.5t 22.5-4.5l 224,0 l0,64 zM 320,128l-256,0 l0-48 q0-7 9.5-11.5t 22.5-4.5l 224,0 l0,64 zM 640,288
q0,13 -9.5,22.5t-22.5,9.5l-160,0 l0,64 l 160,0 q 20,0 29,18q-6,20 -23,33t-38,13l0,32 q0,13 -9.5,22.5t-22.5,9.5t-22.5-9.5t-9.5-22.5l0-32 l-64,0 q-26,0 -45-19t-19-45l0-96 q0-13 9.5-22.5t 22.5-9.5l 160,0 l0-64 l-160,0 q-20,0 -29-19q 7-20 23.5-32.5t 37.5-12.5l0-32 q0-13 9.5-22.5
t 22.5-9.5t 22.5,9.5t 9.5,22.5l0,32 l 64,0 q 27,0 45.5,18.5t 18.5,45.5l0,96 zM 890,704l-58,0 q-35,0 -65.5,19.5t-42.5,44.5l-20,0 l0-192 l 59,0 l-2,17q-5,29 21,38t 82,9l 51,0 zM 960,512l-256,0 l0-64 l 224,0 q 13,0 22.5,4.5t 9.5,11.5l0,48 zM 960,384l-256,0 l0-64 l 224,0 q 13,0 22.5,4.5t 9.5,11.5l0,48 zM 960,256l-256,0 
l0-64 l 224,0 q 13,0 22.5,4.5t 9.5,11.5l0,48 zM 960,128l-256,0 l0-64 l 224,0 q 13,0 22.5,4.5t 9.5,11.5l0,48 z"  />
<glyph unicode="&#xf1e8;" d="M 1015-11l-44-44q-10-9 -86.5-9t-86.5,9l-295,396l-68-63q-25-23 -82-21.5t-83,25.5q-16,15 -14,36.5t 11,39t 20,27.5l 288,288q 10,9 27,17.5t 39.5,12t 38.5-11.5q 25-24 23-95t-27-95l-53-48l 392-292q 9-9 9-85.5t-9-86.5zM 270,282l 0.5-0.5l 0.5-0.5zM 681,691
l-1,0 l0,1 zM 393,906q-9,9 -9,22t 9,22.5t 22,9.5t 22-10l 184-184l-44-44zM 481,626l-184,184q-9,10 -9,22.5t 9,22t 22,9.5t 22-10l 184-184zM 385,530l-184,184q-9,10 -9,22.5t 9,22t 22,9.5t 22-9l 184-185zM 289,435l-184,184q-9,9 -9,21.5t 9,22t 22,9.5t 22-9l 184-184zM 193,339
l-184,184q-9,9 -9,22t 9,22t 22,9t 22-9l 184-184z"  />
<glyph unicode="&#xf03a;" d="M 896-64l-768,0 q-53,0 -90.5,37.5t-37.5,90.5t 37.5,90.5t 90.5,37.5l 320,0 l0,38 q-84,16 -138,68t-54,118l0,0 q0,26 18.5,45t 45,19t 45.5-19t 19-45t 17.5-48t 46.5-35l0,185 q-84,16 -138,68t-54,118t 54,118t 138,68l0,6 q0,26 18.5,45t 45,19t 45.5-19t 19-45l0-6 q 84-16 138-68t 54-118l0,0 
l0,0 q0-27 -19-45.5t-45.5-18.5t-45,19t-18.5,45t-17.5,48t-46.5,35l0-185 q 84-16 138-68t 54-118t-54-118t-138-68l0-38 l 320,0 q 53,0 90.5-37.5t 37.5-90.5t-37.5-90.5t-90.5-37.5zM 448,787q-29-13 -46.5-35t-17.5-48t 17.5-48t 46.5-35l0,166 zM 191.5,128
q-26.5,0 -45-19t-18.5-45.5t 18.5-45t 45-18.5t 45.5,18.5t 19,45t-19,45.5t-45.5,19zM 640,416q0,26 -17.5,48t-46.5,35l0-166 q 29,13 46.5,35t 17.5,48zM 832,128l-384,0 q-27,0 -45.5-19t-18.5-45.5t 18.5-45t 45.5-18.5l 384,0 q 26,0 45,18.5t 19,45t-19,45.5t-45,19z"  />
<glyph unicode="&#xe02c;" d="M 622.826,257.264c-22.11,3.518-22.614,64.314-22.614,64.314s 64.968,64.316, 79.128,150.802
	c 38.090,0, 61.618,91.946, 23.522,124.296C 704.452,630.73, 751.822,864, 512,864c-239.822,0-192.45-233.27-190.864-267.324
	c-38.094-32.35-14.57-124.296, 23.522-124.296c 14.158-86.486, 79.128-150.802, 79.128-150.802s-0.504-60.796-22.614-64.314
	C 329.952,245.932, 64,128.63, 64,0l 448,0 l 448,0 C 960,128.63, 694.048,245.932, 622.826,257.264z"  />
<glyph unicode="&#xe02d;" d="M 785.024,307.904l 43.392-346.752L 512,109.504l-316.352-148.352l 43.392,346.752L 0.064,562.944
	l 343.168,65.92L 512,934.848l 168.768-305.984l 343.168-65.92L 785.024,307.904z M 627.968,572.288L 512,782.656L 396.032,572.288L 160.064,526.976l 164.224-175.36L 294.528,113.28
	L 512,215.232l 217.472-102.016l-29.824,238.4l 164.224,175.36L 627.968,572.288z"  />
<glyph unicode="&#xe02e;" d="M 512,934.848l 168.768-305.984l 343.168-65.92l-238.912-255.040l 43.392-346.752L 512,109.504
	l-316.352-148.352l 43.392,346.752L 0.064,562.944l 343.168,65.92L 512,934.848"  />
<glyph unicode="&#xf114;" d="M 877.286,210.286l0,402.286 q0,22.857 -16,38.857t-38.857,16l-402.286,0 q-22.857,0 -38.857,16t-16,38.857l0,36.571 q0,22.857 -16,38.857t-38.857,16l-182.857,0 q-22.857,0 -38.857-16t-16-38.857l0-548.571 q0-22.857 16-38.857t 38.857-16l 694.857,0 q 22.857,0 38.857,16t 16,38.857zM 950.428,612.571l0-402.286 q0-52.571 -37.714-90.286t-90.286-37.714l-694.857,0 q-52.571,0 -90.286,37.714t-37.714,90.286l0,548.571 q0,52.571 37.714,90.286t 90.286,37.714l 182.857,0  q 52.571,0 90.286-37.714t 37.714-90.286l0-18.286 l 384,0 q 52.571,0 90.286-37.714t 37.714-90.286z" horiz-adv-x="950"  />
<glyph unicode="&#xf115;" d="M 1017.581,428.002q0,19.997 -30.282,19.997l-621.633,0 q-22.854,0 -48.851-12.284t-40.852-29.996l-167.978-207.402q-10.285-13.712 -10.285-22.854q0-19.997 30.282-19.997l 621.633,0 q 22.854,0 49.137,12.569t 40.566,30.282l 167.978,207.402q 10.285,12.569 10.285,22.283zM 365.666,521.133l 438.8,0 l0,91.417 q0,22.854 -15.998,38.852t-38.852,15.998l-329.1,0 q-22.854,0 -38.852,15.998t-15.998,38.852l0,36.566 q0,22.854 -15.998,38.852t-38.852,15.998l-182.833,0 q-22.854,0 -38.852-15.998t-15.998-38.852 l0-487.365 l 146.267,179.977q 25.14,30.282 66.277,49.993t 79.99,19.711zM 1090.715,428.002q0-35.424 -26.283-68.562l-168.549-207.402q-24.568-30.282 -66.277-49.993t-79.99-19.711l-621.633,0 q-52.564,0 -90.274,37.709t-37.709,90.274l0,548.5 q0,52.564 37.709,90.274t 90.274,37.709l 182.833,0 q 52.564,0 90.274-37.709t 37.709-90.274l0-18.284 l 310.816,0 q 52.564,0 90.274-37.709t 37.709-90.274l0-91.417 l 109.7,0 q 30.853,0 56.564-13.998t 38.281-40.281q 8.57-18.284 8.57-38.852z " horiz-adv-x="1097"  />
<glyph unicode="&#xf006;" d="M 649.286,386.286l 174.857,169.714l-241.143,35.429l-108,218.286l-108-218.286l-241.143-35.429l 174.857-169.714l-41.714-240.571l 216,113.714l 215.429-113.714zM 950.428,590.286q0-12.571 -14.857-27.429l-207.429-202.286l 49.143-285.714q 0.571-4 0.571-11.429q0-28.571 -23.429-28.571q-10.857,0 -22.857,6.857l-256.571,134.857l-256.571-134.857q-12.571-6.857 -22.857-6.857q-12,0 -18,8.286t-6,20.286q0,3.429 1.143,11.429l 49.143,285.714 l-208,202.286q-14.286,15.429 -14.286,27.429q0,21.143 32,26.286l 286.857,41.714l 128.571,260q 10.857,23.429 28,23.429t 28-23.429l 128.571-260l 286.857-41.714q 32-5.143 32-26.286z" horiz-adv-x="950"  />
<glyph unicode="&#xf005;" d="M 950.428,590.286q0-12.571 -14.857-27.429l-207.429-202.286l 49.143-285.714q 0.571-4 0.571-11.429q0-12 -6-20.286t-17.429-8.286q-10.857,0 -22.857,6.857l-256.571,134.857l-256.571-134.857q-12.571-6.857 -22.857-6.857q-12,0 -18,8.286t-6,20.286q0,3.429 1.143,11.429l 49.143,285.714l-208,202.286q-14.286,15.429 -14.286,27.429q0,21.143 32,26.286l 286.857,41.714l 128.571,260q 10.857,23.429 28,23.429t 28-23.429l 128.571-260 l 286.857-41.714q 32-5.143 32-26.286z" horiz-adv-x="950"  />
<glyph unicode="&#xe038;" d="M 496-33.984c-220.928,0-400,179.104-400,400c0,170.080, 106.336,315.008, 256,372.832l0-142.368 
	c-76.768-48.096-128-133.184-128-230.464c0-150.208, 121.792-272, 272-272s 272,121.792, 272,272c0,83.072-37.312,157.28-96,207.2L 672,724.768 
	c 132.576-65.152, 224-201.088, 224-358.784C 896,145.088, 716.896-33.984, 496-33.984z M 512,414.016c-35.328,0-64,28.672-64,64L 448,833.984 c0,35.328, 28.672,64, 64,64
	s 64-28.672, 64-64l0-356 C 576,442.656, 547.328,414.016, 512,414.016z"  />
<glyph unicode="&#xf05b;" d="M 1015,162q 9-10 9-86.5t-9-86.5l-44-44q-10-9 -86.5-9t-86.5,9l-415,535l0,1 t-1,1q-59-34 -126-34q-105,0 -179,73t-77,177l0,6 l 38,0 l 83-83q 45-45 108.5-45t 108.5,45t 45,109t-45,109l-82,82l0,39 l 6,0 q 104-3 176.5-77.5t 72.5-178.5q0-68 -33-127l 1-1zM 895.5,0
q 26.5,0 45,19t 18.5,45.5t-18.5,45t-45,18.5t-45.5-18.5t-19-45t 19-45.5t 45.5-19z"  />
<glyph unicode="&#xf104;" d="M 358.286,649.143q0-7.429 -5.714-13.143l-224.571-224.571l 224.571-224.571q 5.714-5.714 5.714-13.143t-5.714-13.143l-28.571-28.571q-5.714-5.714 -13.143-5.714t-13.143,5.714l-266.286,266.286q-5.714,5.714 -5.714,13.143t 5.714,13.143l 266.286,266.286q 5.714,5.714 13.143,5.714t 13.143-5.714l 28.571-28.571q 5.714-5.714 5.714-13.143z" horiz-adv-x="365.714"  />
<glyph unicode="&#xf105;" d="M 340,411.429q0-7.429 -5.714-13.143l-266.286-266.286q-5.714-5.714 -13.143-5.714t-13.143,5.714l-28.571,28.571q-5.714,5.714 -5.714,13.143t 5.714,13.143l 224.571,224.571l-224.571,224.571q-5.714,5.714 -5.714,13.143t 5.714,13.143l 28.571,28.571q 5.714,5.714 13.143,5.714t 13.143-5.714l 266.286-266.286q 5.714-5.714 5.714-13.143z" horiz-adv-x="365.714"  />
<glyph unicode="&#xf106;" d="M 614.286,283.429q0-7.429 -5.714-13.143l-28.571-28.571q-5.714-5.714 -13.143-5.714t-13.143,5.714l-224.571,224.571l-224.571-224.571q-5.714-5.714 -13.143-5.714t-13.143,5.714l-28.571,28.571q-5.714,5.714 -5.714,13.143t 5.714,13.143l 266.286,266.286q 5.714,5.714 13.143,5.714t 13.143-5.714l 266.286-266.286q 5.714-5.714 5.714-13.143z" horiz-adv-x="658.286"  />
<glyph unicode="&#xf107;" d="M 614.286,539.429q0-7.429 -5.714-13.143l-266.286-266.286q-5.714-5.714 -13.143-5.714t-13.143,5.714l-266.286,266.286q-5.714,5.714 -5.714,13.143t 5.714,13.143l 28.571,28.571q 5.714,5.714 13.143,5.714t 13.143-5.714l 224.571-224.571l 224.571,224.571q 5.714,5.714 13.143,5.714t 13.143-5.714l 28.571-28.571q 5.714-5.714 5.714-13.143z" horiz-adv-x="658.286"  />
<glyph unicode="&#xe02f;" d="M 1024,369.556 L 512,766.982 L 0,369.554 L 0,531.592 L 512,929.018 L 1024,531.59 ZM 896,384 L 896,0 L 640,0 L 640,256 L 384,256 L 384,0 L 128,0 L 128,384 L 512,672 Z"  />
<glyph unicode="&#xe030;" d="M 1024,352L 832,544L 832,832L 704,832L 704,672L 512,864L0,352L0,320L 128,320L 128,0L 448,0L 448,192L 576,192L 576,0L 896,0L 896,320L 1024,320 z"  />
<glyph unicode="&#xe031;" d="M 512,896L0,384l 96-96l 96,96l 64-384l 192,0 l0,192 l 128,0 l0-192 l 192,0 l 64,384l 96-96l 96,96L 512,896z M 512,485.492
		c-49.988,0-90.512,40.52-90.512,90.508s 40.524,90.51, 90.512,90.51c 49.984,0, 90.51-40.524, 90.51-90.51
		C 602.51,526.012, 561.984,485.492, 512,485.492z"  />
<glyph unicode="&#xe036;" d="M 1024,288c0-123.712-100.288-224-224-224L 224,64 l0,0.8 c-125.056,8.256-224,112.064-224,239.2
	c0,79.136, 38.464,149.088, 97.536,192.8C 97.056,501.888, 96,506.816, 96,512c0,88.384, 71.648,160, 160,160c 30.752,0, 59.232-9.12, 83.616-24.16
	C 381.312,755.52, 485.632,832, 608,832c 159.072,0, 288-128.928, 288-288c0-17.632-1.824-34.752-4.864-51.488C 969.376,457.568, 1024,379.232, 1024,288z"  />
<glyph unicode="&#xe037;" d="M 812.32,415.872c 1.504-154.912, 145.888-206.368, 147.552-207.136
	c-1.312-3.488-23.136-73.44-76.192-145.664c-45.888-62.368-93.376-124.48-168.32-125.728c-73.696-1.312-97.376,40.672-181.632,40.672
	c-84.224,0-110.528-39.424-180.224-41.984c-72.288-2.56-127.392,67.328-173.664,129.536c-94.528,127.168-166.72,359.328-69.696,516
	c 48.096,77.824, 134.144,127.104, 227.584,128.416c 71.040,1.184, 138.144-44.608, 181.504-44.608c 43.488,0, 124.992,55.008, 210.624,46.944
	c 35.872-1.376, 136.576-13.44, 201.184-101.408C 925.952,607.808, 810.88,545.6, 812.32,415.872z M 510.592,724c-8.352,58.848, 22.784,120.032, 58.368,158.464
	C 608.672,925.76, 675.68,957.952, 731.008,960c 7.072-59.968-18.88-120.16-57.248-163.488C 635.328,753.248, 572.32,719.552, 510.592,724z"  />
<glyph unicode="&#xe039;" d="M 574.752,577.472L 574.752,896 L 1024,448L 574.752,0L 574.752,321.344 C 346.432,321.344, 121.088,281.6,0,92.992
	C 12.608,436.704, 269.76,518.528, 574.752,577.472z"  />
<glyph unicode="&#xe032;" d="M 414.432,64.736c-0.8-0.8-1.632-1.632-2.4-2.432
	c-80.256-76.768-207.904-78.272-285.312-3.072c-82.112,77.28-83.744,189.216, 1.408,275.328c 0.672,0.672, 1.216,1.376, 1.888,2.048
	c 0.8,0.736, 1.568,1.536, 2.336,2.272l 528.64,513.728l0-0.224 l 0.128,0.416l 4.192,4.096c 48.832,46.464, 126.272,47.296, 173.248,1.632
	c 28.256-40.256, 46.048-121.248-1.568-168.352l-4.384-4.288l-50.016-48.544l-45.888-44.64L 349.536,216.544l-0.192,0.192l-44.672-43.392
	l-1.216,1.504l-1.12-1.248l-2.208-2.432c-0.192-0.128-0.416-0.256-0.576-0.448c-17.856-16.128-45.408-16.256-62.272,0.128
	c-16.704,16.256-16.672,40.064-0.032,57.792c 0.544,0.512, 0.864,1.12, 1.408,1.632l 48.448,47.104l 354.72,344.672L 593.28,669.12L 238.56,324.384
	l-43.072-47.008l0-0.064 c-0.128-0.128-0.256-0.192-0.416-0.384c-0.384-0.384-0.704-0.736-1.088-1.152
	c-44.256-44.192-50.368-108.416-6.72-150.88c 43.68-42.4, 115.264-39.040, 160.704,4l 0.064-0.064l 0.896,0.928
	c 0.096,0.064, 0.192,0.128, 0.256,0.192c 0.096,0.064, 0.16,0.192, 0.224,0.256l 481.664,460.032l 49.952,48.608l 4.448,4.256l-0.064,0.064
	c 75.392,74.336, 39.584,213.568, 3.136,263.936c-74.176,72.064-196.288,70.304-272.736-4.032c-1.12-1.056-2.048-2.24-3.136-3.36l-0.128,0.096
	L 83.84,386.016l 0.064-0.064c-0.416-0.448-0.864-0.736-1.312-1.184c-0.736-0.672-1.408-1.568-2.144-2.304l-0.768-0.736l 0.032-0.064
	c-104.864-105.024-106.592-270.176-2.944-371.008c 104.672-101.728, 277.056-99.168, 384.96,5.696c 0.448,0.448, 0.768,0.864, 1.216,1.312l 0.128-0.128
	L 1024,562.656l-48.512,47.136L 414.432,64.736z"  />
<glyph unicode="&#xf014;" d="M 292.571,539.429l0-329.143 q0-8 -5.143-13.143t-13.143-5.143l-36.571,0 q-8,0 -13.143,5.143t-5.143,13.143l0,329.143 q0,8 5.143,13.143t 13.143,5.143l 36.571,0 q 8,0 13.143-5.143t 5.143-13.143zM 438.857,539.429l0-329.143 q0-8 -5.143-13.143t-13.143-5.143l-36.571,0 q-8,0 -13.143,5.143t-5.143,13.143l0,329.143 q0,8 5.143,13.143t 13.143,5.143l 36.571,0 q 8,0 13.143-5.143t 5.143-13.143zM 585.143,539.429l0-329.143 q0-8 -5.143-13.143t-13.143-5.143l-36.571,0 q-8,0 -13.143,5.143t-5.143,13.143l0,329.143  q0,8 5.143,13.143t 13.143,5.143l 36.571,0 q 8,0 13.143-5.143t 5.143-13.143zM 658.286,125.714l0,541.714 l-512,0 l0-541.714 q0-12.571 4-23.143t 8.286-15.429t 6-4.857l 475.429,0 q 1.714,0 6,4.857t 8.286,15.429t 4,23.143zM 274.286,740.571l 256,0 l-27.429,66.857q-4,5.143 -9.714,6.286l-181.143,0 q-5.714-1.143 -9.714-6.286zM 804.571,722.286l0-36.571 q0-8 -5.143-13.143t-13.143-5.143l-54.857,0 l0-541.714 q0-47.429 -26.857-82t-64.571-34.571l-475.429,0  q-37.714,0 -64.571,33.429t-26.857,80.857l0,544 l-54.857,0 q-8,0 -13.143,5.143t-5.143,13.143l0,36.571 q0,8 5.143,13.143t 13.143,5.143l 176.571,0 l 40,95.429q 8.571,21.143 30.857,36t 45.143,14.857l 182.857,0 q 22.857,0 45.143-14.857t 30.857-36l 40-95.429l 176.571,0 q 8,0 13.143-5.143t 5.143-13.143z" horiz-adv-x="804.571"  />
<glyph unicode="&#xf00c;" d="M 954.857,636.571q0-22.857 -16-38.857l-413.714-413.714l-77.714-77.714q-16-16 -38.857-16t-38.857,16l-77.714,77.714l-206.857,206.857q-16,16 -16,38.857t 16,38.857l 77.714,77.714q 16,16 38.857,16t 38.857-16l 168-168.571l 374.857,375.429q 16,16 38.857,16t 38.857-16l 77.714-77.714q 16-16 16-38.857z"  />
<glyph unicode="&#xf00d;" d="M 741.714,204.571q0-22.857 -16-38.857l-77.714-77.714q-16-16 -38.857-16t-38.857,16l-168,168l-168-168q-16-16 -38.857-16t-38.857,16l-77.714,77.714q-16,16 -16,38.857t 16,38.857l 168,168l-168,168q-16,16 -16,38.857t 16,38.857l 77.714,77.714q 16,16 38.857,16t 38.857-16l 168-168l 168,168q 16,16 38.857,16t 38.857-16l 77.714-77.714q 16-16 16-38.857 t-16-38.857l-168-168l 168-168q 16-16 16-38.857z" horiz-adv-x="804.571"  />
<glyph unicode="&#xe01f;" d="M 397.434,42.304l-397.868,391.6l 197.378,194.27l 200.49-197.332l 429.62,422.852l 197.378-194.27L 397.434,42.304z
		 M 107.912,433.904l 289.524-284.962l 518.656,510.482l-89.036,87.632l-429.62-422.852L 196.946,521.538L 107.912,433.904z"  />
<glyph unicode="&#xe020;" d="M 1014.592,731.744l-90.848,90.848c-12.576,12.576-32.832,12.576-45.408,0L 413.856,332.224
	l-266.24,266.368c-12.704,12.704-33.312,12.704-46.016,0l-92.032-92.096c-12.704-12.672-12.704-33.28,0-46.016l 378.656-387.456
	c 7.328-7.36, 17.28-9.888, 26.848-8.64c 9.888-1.472, 20.192,1.024, 27.776,8.64L 1014.592,686.304C 1027.136,698.848, 1027.136,719.2, 1014.592,731.744z"  />
<glyph unicode="&#xe033;" d="M 983.072,743.232l-294.304-296.096l 294.304-294.336c 12.32-12.288, 12.32-32.224,0-44.544
	l-133.632-133.6c-12.256-12.32-32.192-12.32-44.512,0l-293.824,293.824l-292.064-293.824c-12.288-12.32-32.224-12.32-44.544,0l-133.6,133.6
	c-12.288,12.32-12.288,32.256,0,44.544l 292.064,293.824L 40.928,738.656c-12.288,12.288-12.288,32.224,0,44.544l 133.6,133.6
	c 12.288,12.32, 32.224,12.32, 44.544,0l 291.52-291.52l 294.368,296.096c 12.32,12.32, 32.256,12.32, 44.512,0l 133.632-133.6
	C 995.36,775.456, 995.36,755.52, 983.072,743.232z"  />
<glyph unicode="&#xf0d7;" d="M 585.143,557.714q0-14.857 -10.857-25.714l-256-256q-10.857-10.857 -25.714-10.857t-25.714,10.857l-256,256q-10.857,10.857 -10.857,25.714t 10.857,25.714t 25.714,10.857l 512,0 q 14.857,0 25.714-10.857t 10.857-25.714z" horiz-adv-x="585.143"  />
<glyph unicode="&#xf0d8;" d="M 585.143,265.143q0-14.857 -10.857-25.714t-25.714-10.857l-512,0 q-14.857,0 -25.714,10.857t-10.857,25.714t 10.857,25.714l 256,256q 10.857,10.857 25.714,10.857t 25.714-10.857l 256-256q 10.857-10.857 10.857-25.714z" horiz-adv-x="585.143"  />
<glyph unicode="&#xf0d9;" d="M 365.714,704l0-512 q0-14.857 -10.857-25.714t-25.714-10.857t-25.714,10.857l-256,256q-10.857,10.857 -10.857,25.714t 10.857,25.714l 256,256q 10.857,10.857 25.714,10.857t 25.714-10.857t 10.857-25.714z" horiz-adv-x="365.714"  />
<glyph unicode="&#xf0da;" d="M 329.143,448q0-14.857 -10.857-25.714l-256-256q-10.857-10.857 -25.714-10.857t-25.714,10.857t-10.857,25.714l0,512 q0,14.857 10.857,25.714t 25.714,10.857t 25.714-10.857l 256-256q 10.857-10.857 10.857-25.714z" horiz-adv-x="365.714"  />
<glyph unicode="&#xf129;" d="M 365.714,192l0-73.143 q0-14.857 -10.857-25.714t-25.714-10.857l-292.571,0 q-14.857,0 -25.714,10.857t-10.857,25.714l0,73.143 q0,14.857 10.857,25.714t 25.714,10.857l 36.571,0 l0,219.429 l-36.571,0 q-14.857,0 -25.714,10.857t-10.857,25.714l0,73.143 q0,14.857 10.857,25.714t 25.714,10.857l 219.429,0 q 14.857,0 25.714-10.857t 10.857-25.714l0-329.143 l 36.571,0 q 14.857,0 25.714-10.857t 10.857-25.714zM 292.571,850.286l0-109.714 q0-14.857 -10.857-25.714t-25.714-10.857l-146.286,0 q-14.857,0 -25.714,10.857t-10.857,25.714l0,109.714  q0,14.857 10.857,25.714t 25.714,10.857l 146.286,0 q 14.857,0 25.714-10.857t 10.857-25.714z" horiz-adv-x="365.714"  />
<glyph unicode="&#xf12a;" d="M 292.571,246.857l0-128 q0-14.857 -10.857-25.714t-25.714-10.857l-146.286,0 q-14.857,0 -25.714,10.857t-10.857,25.714l0,128 q0,14.857 10.857,25.714t 25.714,10.857l 146.286,0 q 14.857,0 25.714-10.857t 10.857-25.714zM 309.714,850.286l-16-438.857q-0.571-14.857 -11.714-25.714t-26-10.857l-146.286,0 q-14.857,0 -26,10.857t-11.714,25.714l-16,438.857q-0.571,14.857 10,25.714t 25.429,10.857l 182.857,0 q 14.857,0 25.429-10.857t 10-25.714z" horiz-adv-x="365.714"  />
<glyph unicode="&#xf128;" d="M 402.286,242.286l0-137.143 q0-9.143 -6.857-16t-16-6.857l-137.143,0 q-9.143,0 -16,6.857t-6.857,16l0,137.143 q0,9.143 6.857,16t 16,6.857l 137.143,0 q 9.143,0 16-6.857t 6.857-16zM 582.857,585.143q0-30.857 -8.857-57.714t-20-43.714t-31.429-34t-32.857-24.857t-34.857-20.286q-23.429-13.143 -39.143-37.143t-15.714-38.286q0-9.714 -6.857-18.571t-16-8.857l-137.143,0 q-8.571,0 -14.571,10.571 t-6,21.429l0,25.714 q0,47.429 37.143,89.429t 81.714,62q 33.714,15.429 48,32t 14.286,43.429q0,24 -26.571,42.286t-61.429,18.286q-37.143,0 -61.714-16.571q-20-14.286 -61.143-65.714q-7.429-9.143 -17.714-9.143q-6.857,0 -14.286,4.571l-93.714,71.429q-7.429,5.714 -8.857,14.286t 3.143,16q 91.429,152 265.143,152q 45.714,0 92-17.714t 83.429-47.429t 60.571-72.857t 23.429-90.571z" horiz-adv-x="585.143"  />
<glyph unicode="&#x20;" horiz-adv-x="512" />
</font>
</defs>
</svg>
